%TF.GenerationSoftware,KiCad,Pcbnew,9.0.0*%
%TF.CreationDate,2025-03-14T10:35:38+00:00*%
%TF.ProjectId,paxtogeddon-pcb,70617874-6f67-4656-9464-6f6e2d706362,rev?*%
%TF.SameCoordinates,Original*%
%TF.FileFunction,Drillmap*%
%TF.FilePolarity,Positive*%
%FSLAX45Y45*%
G04 Gerber Fmt 4.5, Leading zero omitted, Abs format (unit mm)*
G04 Created by KiCad (PCBNEW 9.0.0) date 2025-03-14 10:35:38*
%MOMM*%
%LPD*%
G01*
G04 APERTURE LIST*
%ADD10C,0.050000*%
%ADD11C,0.200000*%
%ADD12C,0.100000*%
%ADD13C,0.130000*%
G04 APERTURE END LIST*
D10*
X3240000Y-2100000D02*
X7440000Y-2100000D01*
X7440000Y-8120000D01*
X3240000Y-8120000D01*
X3240000Y-2100000D01*
D11*
D12*
X3335000Y-6765000D02*
X3365000Y-6795000D01*
X3365000Y-6765000D02*
X3335000Y-6795000D01*
X4235000Y-3125000D02*
X4265000Y-3155000D01*
X4265000Y-3125000D02*
X4235000Y-3155000D01*
X4805000Y-4785000D02*
X4835000Y-4815000D01*
X4835000Y-4785000D02*
X4805000Y-4815000D01*
X4935000Y-7685000D02*
X4965000Y-7715000D01*
X4965000Y-7685000D02*
X4935000Y-7715000D01*
X5025000Y-4785000D02*
X5055000Y-4815000D01*
X5055000Y-4785000D02*
X5025000Y-4815000D01*
X5075000Y-4135000D02*
X5105000Y-4165000D01*
X5105000Y-4135000D02*
X5075000Y-4165000D01*
X5075000Y-4385000D02*
X5105000Y-4415000D01*
X5105000Y-4385000D02*
X5075000Y-4415000D01*
X5315000Y-4655000D02*
X5345000Y-4685000D01*
X5345000Y-4655000D02*
X5315000Y-4685000D01*
X5545000Y-4145000D02*
X5575000Y-4175000D01*
X5575000Y-4145000D02*
X5545000Y-4175000D01*
X5545000Y-4385000D02*
X5575000Y-4415000D01*
X5575000Y-4385000D02*
X5545000Y-4415000D01*
X5635000Y-4385000D02*
X5665000Y-4415000D01*
X5665000Y-4385000D02*
X5635000Y-4415000D01*
X5635000Y-4785000D02*
X5665000Y-4815000D01*
X5665000Y-4785000D02*
X5635000Y-4815000D01*
X6015000Y-4135000D02*
X6045000Y-4165000D01*
X6045000Y-4135000D02*
X6015000Y-4165000D01*
X6015000Y-4385000D02*
X6045000Y-4415000D01*
X6045000Y-4385000D02*
X6015000Y-4415000D01*
X6525000Y-4135000D02*
X6555000Y-4165000D01*
X6555000Y-4135000D02*
X6525000Y-4165000D01*
X6525000Y-4385000D02*
X6555000Y-4415000D01*
X6555000Y-4385000D02*
X6525000Y-4415000D01*
X6585000Y-5355000D02*
X6615000Y-5385000D01*
X6615000Y-5355000D02*
X6585000Y-5385000D01*
X6795000Y-5355000D02*
X6825000Y-5385000D01*
X6825000Y-5355000D02*
X6795000Y-5385000D01*
X6855000Y-7545000D02*
X6885000Y-7575000D01*
X6885000Y-7545000D02*
X6855000Y-7575000D01*
X7105000Y-7495000D02*
X7135000Y-7525000D01*
X7135000Y-7495000D02*
X7105000Y-7525000D01*
X3600000Y-3383500D02*
G75*
G02*
X3500000Y-3383500I-50000J0D01*
G01*
X3500000Y-3383500D02*
G75*
G02*
X3600000Y-3383500I50000J0D01*
G01*
X3600000Y-3637500D02*
G75*
G02*
X3500000Y-3637500I-50000J0D01*
G01*
X3500000Y-3637500D02*
G75*
G02*
X3600000Y-3637500I50000J0D01*
G01*
X4080000Y-3383500D02*
G75*
G02*
X3980000Y-3383500I-50000J0D01*
G01*
X3980000Y-3383500D02*
G75*
G02*
X4080000Y-3383500I50000J0D01*
G01*
X4080000Y-3637500D02*
G75*
G02*
X3980000Y-3637500I-50000J0D01*
G01*
X3980000Y-3637500D02*
G75*
G02*
X4080000Y-3637500I50000J0D01*
G01*
X4230000Y-6432500D02*
G75*
G02*
X4130000Y-6432500I-50000J0D01*
G01*
X4130000Y-6432500D02*
G75*
G02*
X4230000Y-6432500I50000J0D01*
G01*
X4230000Y-6686500D02*
G75*
G02*
X4130000Y-6686500I-50000J0D01*
G01*
X4130000Y-6686500D02*
G75*
G02*
X4230000Y-6686500I50000J0D01*
G01*
X5616000Y-3330000D02*
G75*
G02*
X5516000Y-3330000I-50000J0D01*
G01*
X5516000Y-3330000D02*
G75*
G02*
X5616000Y-3330000I50000J0D01*
G01*
X5870000Y-3330000D02*
G75*
G02*
X5770000Y-3330000I-50000J0D01*
G01*
X5770000Y-3330000D02*
G75*
G02*
X5870000Y-3330000I50000J0D01*
G01*
X6124000Y-3330000D02*
G75*
G02*
X6024000Y-3330000I-50000J0D01*
G01*
X6024000Y-3330000D02*
G75*
G02*
X6124000Y-3330000I50000J0D01*
G01*
X6378000Y-3330000D02*
G75*
G02*
X6278000Y-3330000I-50000J0D01*
G01*
X6278000Y-3330000D02*
G75*
G02*
X6378000Y-3330000I50000J0D01*
G01*
D13*
X3556750Y-7491750D02*
X3556750Y-7621750D01*
X3491750Y-7556750D02*
X3621750Y-7556750D01*
X3590000Y-2585000D02*
X3590000Y-2715000D01*
X3525000Y-2650000D02*
X3655000Y-2650000D01*
X4056750Y-7491750D02*
X4056750Y-7621750D01*
X3991750Y-7556750D02*
X4121750Y-7556750D01*
X4090000Y-2585000D02*
X4090000Y-2715000D01*
X4025000Y-2650000D02*
X4155000Y-2650000D01*
X4590000Y-2585000D02*
X4590000Y-2715000D01*
X4525000Y-2650000D02*
X4655000Y-2650000D01*
X5090000Y-2585000D02*
X5090000Y-2715000D01*
X5025000Y-2650000D02*
X5155000Y-2650000D01*
X5590000Y-2585000D02*
X5590000Y-2715000D01*
X5525000Y-2650000D02*
X5655000Y-2650000D01*
X6090000Y-2585000D02*
X6090000Y-2715000D01*
X6025000Y-2650000D02*
X6155000Y-2650000D01*
X6590000Y-2585000D02*
X6590000Y-2715000D01*
X6525000Y-2650000D02*
X6655000Y-2650000D01*
X7090000Y-2585000D02*
X7090000Y-2715000D01*
X7025000Y-2650000D02*
X7155000Y-2650000D01*
D11*
X4852711Y-3460711D02*
X4852711Y-3319289D01*
X4711289Y-3319289D01*
X4711289Y-3460711D01*
X4852711Y-3460711D01*
X4852711Y-5840711D02*
X4852711Y-5699289D01*
X4711289Y-5699289D01*
X4711289Y-5840711D01*
X4852711Y-5840711D01*
X7182711Y-3460711D02*
X7182711Y-3319289D01*
X7041289Y-3319289D01*
X7041289Y-3460711D01*
X7182711Y-3460711D01*
X7182711Y-5840711D02*
X7182711Y-5699289D01*
X7041289Y-5699289D01*
X7041289Y-5840711D01*
X7182711Y-5840711D01*
X3498277Y-8433984D02*
X3498277Y-8233984D01*
X3498277Y-8233984D02*
X3545896Y-8233984D01*
X3545896Y-8233984D02*
X3574467Y-8243508D01*
X3574467Y-8243508D02*
X3593515Y-8262555D01*
X3593515Y-8262555D02*
X3603039Y-8281603D01*
X3603039Y-8281603D02*
X3612562Y-8319698D01*
X3612562Y-8319698D02*
X3612562Y-8348269D01*
X3612562Y-8348269D02*
X3603039Y-8386365D01*
X3603039Y-8386365D02*
X3593515Y-8405412D01*
X3593515Y-8405412D02*
X3574467Y-8424460D01*
X3574467Y-8424460D02*
X3545896Y-8433984D01*
X3545896Y-8433984D02*
X3498277Y-8433984D01*
X3698277Y-8433984D02*
X3698277Y-8300650D01*
X3698277Y-8338746D02*
X3707801Y-8319698D01*
X3707801Y-8319698D02*
X3717324Y-8310174D01*
X3717324Y-8310174D02*
X3736372Y-8300650D01*
X3736372Y-8300650D02*
X3755420Y-8300650D01*
X3822086Y-8433984D02*
X3822086Y-8300650D01*
X3822086Y-8233984D02*
X3812562Y-8243508D01*
X3812562Y-8243508D02*
X3822086Y-8253031D01*
X3822086Y-8253031D02*
X3831610Y-8243508D01*
X3831610Y-8243508D02*
X3822086Y-8233984D01*
X3822086Y-8233984D02*
X3822086Y-8253031D01*
X3945896Y-8433984D02*
X3926848Y-8424460D01*
X3926848Y-8424460D02*
X3917324Y-8405412D01*
X3917324Y-8405412D02*
X3917324Y-8233984D01*
X4050658Y-8433984D02*
X4031610Y-8424460D01*
X4031610Y-8424460D02*
X4022086Y-8405412D01*
X4022086Y-8405412D02*
X4022086Y-8233984D01*
X4279229Y-8433984D02*
X4279229Y-8233984D01*
X4279229Y-8233984D02*
X4345896Y-8376841D01*
X4345896Y-8376841D02*
X4412563Y-8233984D01*
X4412563Y-8233984D02*
X4412563Y-8433984D01*
X4593515Y-8433984D02*
X4593515Y-8329222D01*
X4593515Y-8329222D02*
X4583991Y-8310174D01*
X4583991Y-8310174D02*
X4564944Y-8300650D01*
X4564944Y-8300650D02*
X4526848Y-8300650D01*
X4526848Y-8300650D02*
X4507801Y-8310174D01*
X4593515Y-8424460D02*
X4574467Y-8433984D01*
X4574467Y-8433984D02*
X4526848Y-8433984D01*
X4526848Y-8433984D02*
X4507801Y-8424460D01*
X4507801Y-8424460D02*
X4498277Y-8405412D01*
X4498277Y-8405412D02*
X4498277Y-8386365D01*
X4498277Y-8386365D02*
X4507801Y-8367317D01*
X4507801Y-8367317D02*
X4526848Y-8357793D01*
X4526848Y-8357793D02*
X4574467Y-8357793D01*
X4574467Y-8357793D02*
X4593515Y-8348269D01*
X4688753Y-8300650D02*
X4688753Y-8500650D01*
X4688753Y-8310174D02*
X4707801Y-8300650D01*
X4707801Y-8300650D02*
X4745896Y-8300650D01*
X4745896Y-8300650D02*
X4764944Y-8310174D01*
X4764944Y-8310174D02*
X4774467Y-8319698D01*
X4774467Y-8319698D02*
X4783991Y-8338746D01*
X4783991Y-8338746D02*
X4783991Y-8395889D01*
X4783991Y-8395889D02*
X4774467Y-8414936D01*
X4774467Y-8414936D02*
X4764944Y-8424460D01*
X4764944Y-8424460D02*
X4745896Y-8433984D01*
X4745896Y-8433984D02*
X4707801Y-8433984D01*
X4707801Y-8433984D02*
X4688753Y-8424460D01*
X4869705Y-8414936D02*
X4879229Y-8424460D01*
X4879229Y-8424460D02*
X4869705Y-8433984D01*
X4869705Y-8433984D02*
X4860182Y-8424460D01*
X4860182Y-8424460D02*
X4869705Y-8414936D01*
X4869705Y-8414936D02*
X4869705Y-8433984D01*
X4869705Y-8310174D02*
X4879229Y-8319698D01*
X4879229Y-8319698D02*
X4869705Y-8329222D01*
X4869705Y-8329222D02*
X4860182Y-8319698D01*
X4860182Y-8319698D02*
X4869705Y-8310174D01*
X4869705Y-8310174D02*
X4869705Y-8329222D01*
D12*
X3207500Y-8747500D02*
X3237500Y-8777500D01*
X3237500Y-8747500D02*
X3207500Y-8777500D01*
D11*
X3536372Y-8653984D02*
X3555420Y-8653984D01*
X3555420Y-8653984D02*
X3574467Y-8663508D01*
X3574467Y-8663508D02*
X3583991Y-8673031D01*
X3583991Y-8673031D02*
X3593515Y-8692079D01*
X3593515Y-8692079D02*
X3603039Y-8730174D01*
X3603039Y-8730174D02*
X3603039Y-8777793D01*
X3603039Y-8777793D02*
X3593515Y-8815889D01*
X3593515Y-8815889D02*
X3583991Y-8834936D01*
X3583991Y-8834936D02*
X3574467Y-8844460D01*
X3574467Y-8844460D02*
X3555420Y-8853984D01*
X3555420Y-8853984D02*
X3536372Y-8853984D01*
X3536372Y-8853984D02*
X3517324Y-8844460D01*
X3517324Y-8844460D02*
X3507801Y-8834936D01*
X3507801Y-8834936D02*
X3498277Y-8815889D01*
X3498277Y-8815889D02*
X3488753Y-8777793D01*
X3488753Y-8777793D02*
X3488753Y-8730174D01*
X3488753Y-8730174D02*
X3498277Y-8692079D01*
X3498277Y-8692079D02*
X3507801Y-8673031D01*
X3507801Y-8673031D02*
X3517324Y-8663508D01*
X3517324Y-8663508D02*
X3536372Y-8653984D01*
X3688753Y-8834936D02*
X3698277Y-8844460D01*
X3698277Y-8844460D02*
X3688753Y-8853984D01*
X3688753Y-8853984D02*
X3679229Y-8844460D01*
X3679229Y-8844460D02*
X3688753Y-8834936D01*
X3688753Y-8834936D02*
X3688753Y-8853984D01*
X3764943Y-8653984D02*
X3888753Y-8653984D01*
X3888753Y-8653984D02*
X3822086Y-8730174D01*
X3822086Y-8730174D02*
X3850658Y-8730174D01*
X3850658Y-8730174D02*
X3869705Y-8739698D01*
X3869705Y-8739698D02*
X3879229Y-8749222D01*
X3879229Y-8749222D02*
X3888753Y-8768270D01*
X3888753Y-8768270D02*
X3888753Y-8815889D01*
X3888753Y-8815889D02*
X3879229Y-8834936D01*
X3879229Y-8834936D02*
X3869705Y-8844460D01*
X3869705Y-8844460D02*
X3850658Y-8853984D01*
X3850658Y-8853984D02*
X3793515Y-8853984D01*
X3793515Y-8853984D02*
X3774467Y-8844460D01*
X3774467Y-8844460D02*
X3764943Y-8834936D01*
X4012562Y-8653984D02*
X4031610Y-8653984D01*
X4031610Y-8653984D02*
X4050658Y-8663508D01*
X4050658Y-8663508D02*
X4060182Y-8673031D01*
X4060182Y-8673031D02*
X4069705Y-8692079D01*
X4069705Y-8692079D02*
X4079229Y-8730174D01*
X4079229Y-8730174D02*
X4079229Y-8777793D01*
X4079229Y-8777793D02*
X4069705Y-8815889D01*
X4069705Y-8815889D02*
X4060182Y-8834936D01*
X4060182Y-8834936D02*
X4050658Y-8844460D01*
X4050658Y-8844460D02*
X4031610Y-8853984D01*
X4031610Y-8853984D02*
X4012562Y-8853984D01*
X4012562Y-8853984D02*
X3993515Y-8844460D01*
X3993515Y-8844460D02*
X3983991Y-8834936D01*
X3983991Y-8834936D02*
X3974467Y-8815889D01*
X3974467Y-8815889D02*
X3964943Y-8777793D01*
X3964943Y-8777793D02*
X3964943Y-8730174D01*
X3964943Y-8730174D02*
X3974467Y-8692079D01*
X3974467Y-8692079D02*
X3983991Y-8673031D01*
X3983991Y-8673031D02*
X3993515Y-8663508D01*
X3993515Y-8663508D02*
X4012562Y-8653984D01*
X4203039Y-8653984D02*
X4222086Y-8653984D01*
X4222086Y-8653984D02*
X4241134Y-8663508D01*
X4241134Y-8663508D02*
X4250658Y-8673031D01*
X4250658Y-8673031D02*
X4260182Y-8692079D01*
X4260182Y-8692079D02*
X4269705Y-8730174D01*
X4269705Y-8730174D02*
X4269705Y-8777793D01*
X4269705Y-8777793D02*
X4260182Y-8815889D01*
X4260182Y-8815889D02*
X4250658Y-8834936D01*
X4250658Y-8834936D02*
X4241134Y-8844460D01*
X4241134Y-8844460D02*
X4222086Y-8853984D01*
X4222086Y-8853984D02*
X4203039Y-8853984D01*
X4203039Y-8853984D02*
X4183991Y-8844460D01*
X4183991Y-8844460D02*
X4174467Y-8834936D01*
X4174467Y-8834936D02*
X4164943Y-8815889D01*
X4164943Y-8815889D02*
X4155420Y-8777793D01*
X4155420Y-8777793D02*
X4155420Y-8730174D01*
X4155420Y-8730174D02*
X4164943Y-8692079D01*
X4164943Y-8692079D02*
X4174467Y-8673031D01*
X4174467Y-8673031D02*
X4183991Y-8663508D01*
X4183991Y-8663508D02*
X4203039Y-8653984D01*
X4355420Y-8853984D02*
X4355420Y-8720650D01*
X4355420Y-8739698D02*
X4364944Y-8730174D01*
X4364944Y-8730174D02*
X4383991Y-8720650D01*
X4383991Y-8720650D02*
X4412563Y-8720650D01*
X4412563Y-8720650D02*
X4431610Y-8730174D01*
X4431610Y-8730174D02*
X4441134Y-8749222D01*
X4441134Y-8749222D02*
X4441134Y-8853984D01*
X4441134Y-8749222D02*
X4450658Y-8730174D01*
X4450658Y-8730174D02*
X4469705Y-8720650D01*
X4469705Y-8720650D02*
X4498277Y-8720650D01*
X4498277Y-8720650D02*
X4517325Y-8730174D01*
X4517325Y-8730174D02*
X4526848Y-8749222D01*
X4526848Y-8749222D02*
X4526848Y-8853984D01*
X4622086Y-8853984D02*
X4622086Y-8720650D01*
X4622086Y-8739698D02*
X4631610Y-8730174D01*
X4631610Y-8730174D02*
X4650658Y-8720650D01*
X4650658Y-8720650D02*
X4679229Y-8720650D01*
X4679229Y-8720650D02*
X4698277Y-8730174D01*
X4698277Y-8730174D02*
X4707801Y-8749222D01*
X4707801Y-8749222D02*
X4707801Y-8853984D01*
X4707801Y-8749222D02*
X4717325Y-8730174D01*
X4717325Y-8730174D02*
X4736372Y-8720650D01*
X4736372Y-8720650D02*
X4764944Y-8720650D01*
X4764944Y-8720650D02*
X4783991Y-8730174D01*
X4783991Y-8730174D02*
X4793515Y-8749222D01*
X4793515Y-8749222D02*
X4793515Y-8853984D01*
X5183991Y-8644460D02*
X5012563Y-8901603D01*
X5441134Y-8653984D02*
X5460182Y-8653984D01*
X5460182Y-8653984D02*
X5479229Y-8663508D01*
X5479229Y-8663508D02*
X5488753Y-8673031D01*
X5488753Y-8673031D02*
X5498277Y-8692079D01*
X5498277Y-8692079D02*
X5507801Y-8730174D01*
X5507801Y-8730174D02*
X5507801Y-8777793D01*
X5507801Y-8777793D02*
X5498277Y-8815889D01*
X5498277Y-8815889D02*
X5488753Y-8834936D01*
X5488753Y-8834936D02*
X5479229Y-8844460D01*
X5479229Y-8844460D02*
X5460182Y-8853984D01*
X5460182Y-8853984D02*
X5441134Y-8853984D01*
X5441134Y-8853984D02*
X5422087Y-8844460D01*
X5422087Y-8844460D02*
X5412563Y-8834936D01*
X5412563Y-8834936D02*
X5403039Y-8815889D01*
X5403039Y-8815889D02*
X5393515Y-8777793D01*
X5393515Y-8777793D02*
X5393515Y-8730174D01*
X5393515Y-8730174D02*
X5403039Y-8692079D01*
X5403039Y-8692079D02*
X5412563Y-8673031D01*
X5412563Y-8673031D02*
X5422087Y-8663508D01*
X5422087Y-8663508D02*
X5441134Y-8653984D01*
X5593515Y-8834936D02*
X5603039Y-8844460D01*
X5603039Y-8844460D02*
X5593515Y-8853984D01*
X5593515Y-8853984D02*
X5583991Y-8844460D01*
X5583991Y-8844460D02*
X5593515Y-8834936D01*
X5593515Y-8834936D02*
X5593515Y-8853984D01*
X5726848Y-8653984D02*
X5745896Y-8653984D01*
X5745896Y-8653984D02*
X5764944Y-8663508D01*
X5764944Y-8663508D02*
X5774467Y-8673031D01*
X5774467Y-8673031D02*
X5783991Y-8692079D01*
X5783991Y-8692079D02*
X5793515Y-8730174D01*
X5793515Y-8730174D02*
X5793515Y-8777793D01*
X5793515Y-8777793D02*
X5783991Y-8815889D01*
X5783991Y-8815889D02*
X5774467Y-8834936D01*
X5774467Y-8834936D02*
X5764944Y-8844460D01*
X5764944Y-8844460D02*
X5745896Y-8853984D01*
X5745896Y-8853984D02*
X5726848Y-8853984D01*
X5726848Y-8853984D02*
X5707801Y-8844460D01*
X5707801Y-8844460D02*
X5698277Y-8834936D01*
X5698277Y-8834936D02*
X5688753Y-8815889D01*
X5688753Y-8815889D02*
X5679229Y-8777793D01*
X5679229Y-8777793D02*
X5679229Y-8730174D01*
X5679229Y-8730174D02*
X5688753Y-8692079D01*
X5688753Y-8692079D02*
X5698277Y-8673031D01*
X5698277Y-8673031D02*
X5707801Y-8663508D01*
X5707801Y-8663508D02*
X5726848Y-8653984D01*
X5983991Y-8853984D02*
X5869706Y-8853984D01*
X5926848Y-8853984D02*
X5926848Y-8653984D01*
X5926848Y-8653984D02*
X5907801Y-8682555D01*
X5907801Y-8682555D02*
X5888753Y-8701603D01*
X5888753Y-8701603D02*
X5869706Y-8711127D01*
X6174467Y-8853984D02*
X6060182Y-8853984D01*
X6117325Y-8853984D02*
X6117325Y-8653984D01*
X6117325Y-8653984D02*
X6098277Y-8682555D01*
X6098277Y-8682555D02*
X6079229Y-8701603D01*
X6079229Y-8701603D02*
X6060182Y-8711127D01*
X6288753Y-8739698D02*
X6269706Y-8730174D01*
X6269706Y-8730174D02*
X6260182Y-8720650D01*
X6260182Y-8720650D02*
X6250658Y-8701603D01*
X6250658Y-8701603D02*
X6250658Y-8692079D01*
X6250658Y-8692079D02*
X6260182Y-8673031D01*
X6260182Y-8673031D02*
X6269706Y-8663508D01*
X6269706Y-8663508D02*
X6288753Y-8653984D01*
X6288753Y-8653984D02*
X6326848Y-8653984D01*
X6326848Y-8653984D02*
X6345896Y-8663508D01*
X6345896Y-8663508D02*
X6355420Y-8673031D01*
X6355420Y-8673031D02*
X6364944Y-8692079D01*
X6364944Y-8692079D02*
X6364944Y-8701603D01*
X6364944Y-8701603D02*
X6355420Y-8720650D01*
X6355420Y-8720650D02*
X6345896Y-8730174D01*
X6345896Y-8730174D02*
X6326848Y-8739698D01*
X6326848Y-8739698D02*
X6288753Y-8739698D01*
X6288753Y-8739698D02*
X6269706Y-8749222D01*
X6269706Y-8749222D02*
X6260182Y-8758746D01*
X6260182Y-8758746D02*
X6250658Y-8777793D01*
X6250658Y-8777793D02*
X6250658Y-8815889D01*
X6250658Y-8815889D02*
X6260182Y-8834936D01*
X6260182Y-8834936D02*
X6269706Y-8844460D01*
X6269706Y-8844460D02*
X6288753Y-8853984D01*
X6288753Y-8853984D02*
X6326848Y-8853984D01*
X6326848Y-8853984D02*
X6345896Y-8844460D01*
X6345896Y-8844460D02*
X6355420Y-8834936D01*
X6355420Y-8834936D02*
X6364944Y-8815889D01*
X6364944Y-8815889D02*
X6364944Y-8777793D01*
X6364944Y-8777793D02*
X6355420Y-8758746D01*
X6355420Y-8758746D02*
X6345896Y-8749222D01*
X6345896Y-8749222D02*
X6326848Y-8739698D01*
X6441134Y-8653984D02*
X6441134Y-8692079D01*
X6517325Y-8653984D02*
X6517325Y-8692079D01*
X6812563Y-8930174D02*
X6803039Y-8920650D01*
X6803039Y-8920650D02*
X6783991Y-8892079D01*
X6783991Y-8892079D02*
X6774468Y-8873031D01*
X6774468Y-8873031D02*
X6764944Y-8844460D01*
X6764944Y-8844460D02*
X6755420Y-8796841D01*
X6755420Y-8796841D02*
X6755420Y-8758746D01*
X6755420Y-8758746D02*
X6764944Y-8711127D01*
X6764944Y-8711127D02*
X6774468Y-8682555D01*
X6774468Y-8682555D02*
X6783991Y-8663508D01*
X6783991Y-8663508D02*
X6803039Y-8634936D01*
X6803039Y-8634936D02*
X6812563Y-8625412D01*
X6879229Y-8673031D02*
X6888753Y-8663508D01*
X6888753Y-8663508D02*
X6907801Y-8653984D01*
X6907801Y-8653984D02*
X6955420Y-8653984D01*
X6955420Y-8653984D02*
X6974468Y-8663508D01*
X6974468Y-8663508D02*
X6983991Y-8673031D01*
X6983991Y-8673031D02*
X6993515Y-8692079D01*
X6993515Y-8692079D02*
X6993515Y-8711127D01*
X6993515Y-8711127D02*
X6983991Y-8739698D01*
X6983991Y-8739698D02*
X6869706Y-8853984D01*
X6869706Y-8853984D02*
X6993515Y-8853984D01*
X7117325Y-8653984D02*
X7136372Y-8653984D01*
X7136372Y-8653984D02*
X7155420Y-8663508D01*
X7155420Y-8663508D02*
X7164944Y-8673031D01*
X7164944Y-8673031D02*
X7174468Y-8692079D01*
X7174468Y-8692079D02*
X7183991Y-8730174D01*
X7183991Y-8730174D02*
X7183991Y-8777793D01*
X7183991Y-8777793D02*
X7174468Y-8815889D01*
X7174468Y-8815889D02*
X7164944Y-8834936D01*
X7164944Y-8834936D02*
X7155420Y-8844460D01*
X7155420Y-8844460D02*
X7136372Y-8853984D01*
X7136372Y-8853984D02*
X7117325Y-8853984D01*
X7117325Y-8853984D02*
X7098277Y-8844460D01*
X7098277Y-8844460D02*
X7088753Y-8834936D01*
X7088753Y-8834936D02*
X7079229Y-8815889D01*
X7079229Y-8815889D02*
X7069706Y-8777793D01*
X7069706Y-8777793D02*
X7069706Y-8730174D01*
X7069706Y-8730174D02*
X7079229Y-8692079D01*
X7079229Y-8692079D02*
X7088753Y-8673031D01*
X7088753Y-8673031D02*
X7098277Y-8663508D01*
X7098277Y-8663508D02*
X7117325Y-8653984D01*
X7422087Y-8853984D02*
X7422087Y-8653984D01*
X7507801Y-8853984D02*
X7507801Y-8749222D01*
X7507801Y-8749222D02*
X7498277Y-8730174D01*
X7498277Y-8730174D02*
X7479230Y-8720650D01*
X7479230Y-8720650D02*
X7450658Y-8720650D01*
X7450658Y-8720650D02*
X7431610Y-8730174D01*
X7431610Y-8730174D02*
X7422087Y-8739698D01*
X7631610Y-8853984D02*
X7612563Y-8844460D01*
X7612563Y-8844460D02*
X7603039Y-8834936D01*
X7603039Y-8834936D02*
X7593515Y-8815889D01*
X7593515Y-8815889D02*
X7593515Y-8758746D01*
X7593515Y-8758746D02*
X7603039Y-8739698D01*
X7603039Y-8739698D02*
X7612563Y-8730174D01*
X7612563Y-8730174D02*
X7631610Y-8720650D01*
X7631610Y-8720650D02*
X7660182Y-8720650D01*
X7660182Y-8720650D02*
X7679230Y-8730174D01*
X7679230Y-8730174D02*
X7688753Y-8739698D01*
X7688753Y-8739698D02*
X7698277Y-8758746D01*
X7698277Y-8758746D02*
X7698277Y-8815889D01*
X7698277Y-8815889D02*
X7688753Y-8834936D01*
X7688753Y-8834936D02*
X7679230Y-8844460D01*
X7679230Y-8844460D02*
X7660182Y-8853984D01*
X7660182Y-8853984D02*
X7631610Y-8853984D01*
X7812563Y-8853984D02*
X7793515Y-8844460D01*
X7793515Y-8844460D02*
X7783991Y-8825412D01*
X7783991Y-8825412D02*
X7783991Y-8653984D01*
X7964944Y-8844460D02*
X7945896Y-8853984D01*
X7945896Y-8853984D02*
X7907801Y-8853984D01*
X7907801Y-8853984D02*
X7888753Y-8844460D01*
X7888753Y-8844460D02*
X7879230Y-8825412D01*
X7879230Y-8825412D02*
X7879230Y-8749222D01*
X7879230Y-8749222D02*
X7888753Y-8730174D01*
X7888753Y-8730174D02*
X7907801Y-8720650D01*
X7907801Y-8720650D02*
X7945896Y-8720650D01*
X7945896Y-8720650D02*
X7964944Y-8730174D01*
X7964944Y-8730174D02*
X7974468Y-8749222D01*
X7974468Y-8749222D02*
X7974468Y-8768270D01*
X7974468Y-8768270D02*
X7879230Y-8787317D01*
X8050658Y-8844460D02*
X8069706Y-8853984D01*
X8069706Y-8853984D02*
X8107801Y-8853984D01*
X8107801Y-8853984D02*
X8126849Y-8844460D01*
X8126849Y-8844460D02*
X8136372Y-8825412D01*
X8136372Y-8825412D02*
X8136372Y-8815889D01*
X8136372Y-8815889D02*
X8126849Y-8796841D01*
X8126849Y-8796841D02*
X8107801Y-8787317D01*
X8107801Y-8787317D02*
X8079230Y-8787317D01*
X8079230Y-8787317D02*
X8060182Y-8777793D01*
X8060182Y-8777793D02*
X8050658Y-8758746D01*
X8050658Y-8758746D02*
X8050658Y-8749222D01*
X8050658Y-8749222D02*
X8060182Y-8730174D01*
X8060182Y-8730174D02*
X8079230Y-8720650D01*
X8079230Y-8720650D02*
X8107801Y-8720650D01*
X8107801Y-8720650D02*
X8126849Y-8730174D01*
X8203039Y-8930174D02*
X8212563Y-8920650D01*
X8212563Y-8920650D02*
X8231611Y-8892079D01*
X8231611Y-8892079D02*
X8241134Y-8873031D01*
X8241134Y-8873031D02*
X8250658Y-8844460D01*
X8250658Y-8844460D02*
X8260182Y-8796841D01*
X8260182Y-8796841D02*
X8260182Y-8758746D01*
X8260182Y-8758746D02*
X8250658Y-8711127D01*
X8250658Y-8711127D02*
X8241134Y-8682555D01*
X8241134Y-8682555D02*
X8231611Y-8663508D01*
X8231611Y-8663508D02*
X8212563Y-8634936D01*
X8212563Y-8634936D02*
X8203039Y-8625412D01*
D12*
X3237500Y-9026500D02*
G75*
G02*
X3137500Y-9026500I-50000J0D01*
G01*
X3137500Y-9026500D02*
G75*
G02*
X3237500Y-9026500I50000J0D01*
G01*
D11*
X3603039Y-9117984D02*
X3488753Y-9117984D01*
X3545896Y-9117984D02*
X3545896Y-8917984D01*
X3545896Y-8917984D02*
X3526848Y-8946555D01*
X3526848Y-8946555D02*
X3507801Y-8965603D01*
X3507801Y-8965603D02*
X3488753Y-8975127D01*
X3688753Y-9098936D02*
X3698277Y-9108460D01*
X3698277Y-9108460D02*
X3688753Y-9117984D01*
X3688753Y-9117984D02*
X3679229Y-9108460D01*
X3679229Y-9108460D02*
X3688753Y-9098936D01*
X3688753Y-9098936D02*
X3688753Y-9117984D01*
X3822086Y-8917984D02*
X3841134Y-8917984D01*
X3841134Y-8917984D02*
X3860182Y-8927508D01*
X3860182Y-8927508D02*
X3869705Y-8937031D01*
X3869705Y-8937031D02*
X3879229Y-8956079D01*
X3879229Y-8956079D02*
X3888753Y-8994174D01*
X3888753Y-8994174D02*
X3888753Y-9041793D01*
X3888753Y-9041793D02*
X3879229Y-9079889D01*
X3879229Y-9079889D02*
X3869705Y-9098936D01*
X3869705Y-9098936D02*
X3860182Y-9108460D01*
X3860182Y-9108460D02*
X3841134Y-9117984D01*
X3841134Y-9117984D02*
X3822086Y-9117984D01*
X3822086Y-9117984D02*
X3803039Y-9108460D01*
X3803039Y-9108460D02*
X3793515Y-9098936D01*
X3793515Y-9098936D02*
X3783991Y-9079889D01*
X3783991Y-9079889D02*
X3774467Y-9041793D01*
X3774467Y-9041793D02*
X3774467Y-8994174D01*
X3774467Y-8994174D02*
X3783991Y-8956079D01*
X3783991Y-8956079D02*
X3793515Y-8937031D01*
X3793515Y-8937031D02*
X3803039Y-8927508D01*
X3803039Y-8927508D02*
X3822086Y-8917984D01*
X4012562Y-8917984D02*
X4031610Y-8917984D01*
X4031610Y-8917984D02*
X4050658Y-8927508D01*
X4050658Y-8927508D02*
X4060182Y-8937031D01*
X4060182Y-8937031D02*
X4069705Y-8956079D01*
X4069705Y-8956079D02*
X4079229Y-8994174D01*
X4079229Y-8994174D02*
X4079229Y-9041793D01*
X4079229Y-9041793D02*
X4069705Y-9079889D01*
X4069705Y-9079889D02*
X4060182Y-9098936D01*
X4060182Y-9098936D02*
X4050658Y-9108460D01*
X4050658Y-9108460D02*
X4031610Y-9117984D01*
X4031610Y-9117984D02*
X4012562Y-9117984D01*
X4012562Y-9117984D02*
X3993515Y-9108460D01*
X3993515Y-9108460D02*
X3983991Y-9098936D01*
X3983991Y-9098936D02*
X3974467Y-9079889D01*
X3974467Y-9079889D02*
X3964943Y-9041793D01*
X3964943Y-9041793D02*
X3964943Y-8994174D01*
X3964943Y-8994174D02*
X3974467Y-8956079D01*
X3974467Y-8956079D02*
X3983991Y-8937031D01*
X3983991Y-8937031D02*
X3993515Y-8927508D01*
X3993515Y-8927508D02*
X4012562Y-8917984D01*
X4203039Y-8917984D02*
X4222086Y-8917984D01*
X4222086Y-8917984D02*
X4241134Y-8927508D01*
X4241134Y-8927508D02*
X4250658Y-8937031D01*
X4250658Y-8937031D02*
X4260182Y-8956079D01*
X4260182Y-8956079D02*
X4269705Y-8994174D01*
X4269705Y-8994174D02*
X4269705Y-9041793D01*
X4269705Y-9041793D02*
X4260182Y-9079889D01*
X4260182Y-9079889D02*
X4250658Y-9098936D01*
X4250658Y-9098936D02*
X4241134Y-9108460D01*
X4241134Y-9108460D02*
X4222086Y-9117984D01*
X4222086Y-9117984D02*
X4203039Y-9117984D01*
X4203039Y-9117984D02*
X4183991Y-9108460D01*
X4183991Y-9108460D02*
X4174467Y-9098936D01*
X4174467Y-9098936D02*
X4164943Y-9079889D01*
X4164943Y-9079889D02*
X4155420Y-9041793D01*
X4155420Y-9041793D02*
X4155420Y-8994174D01*
X4155420Y-8994174D02*
X4164943Y-8956079D01*
X4164943Y-8956079D02*
X4174467Y-8937031D01*
X4174467Y-8937031D02*
X4183991Y-8927508D01*
X4183991Y-8927508D02*
X4203039Y-8917984D01*
X4355420Y-9117984D02*
X4355420Y-8984650D01*
X4355420Y-9003698D02*
X4364944Y-8994174D01*
X4364944Y-8994174D02*
X4383991Y-8984650D01*
X4383991Y-8984650D02*
X4412563Y-8984650D01*
X4412563Y-8984650D02*
X4431610Y-8994174D01*
X4431610Y-8994174D02*
X4441134Y-9013222D01*
X4441134Y-9013222D02*
X4441134Y-9117984D01*
X4441134Y-9013222D02*
X4450658Y-8994174D01*
X4450658Y-8994174D02*
X4469705Y-8984650D01*
X4469705Y-8984650D02*
X4498277Y-8984650D01*
X4498277Y-8984650D02*
X4517325Y-8994174D01*
X4517325Y-8994174D02*
X4526848Y-9013222D01*
X4526848Y-9013222D02*
X4526848Y-9117984D01*
X4622086Y-9117984D02*
X4622086Y-8984650D01*
X4622086Y-9003698D02*
X4631610Y-8994174D01*
X4631610Y-8994174D02*
X4650658Y-8984650D01*
X4650658Y-8984650D02*
X4679229Y-8984650D01*
X4679229Y-8984650D02*
X4698277Y-8994174D01*
X4698277Y-8994174D02*
X4707801Y-9013222D01*
X4707801Y-9013222D02*
X4707801Y-9117984D01*
X4707801Y-9013222D02*
X4717325Y-8994174D01*
X4717325Y-8994174D02*
X4736372Y-8984650D01*
X4736372Y-8984650D02*
X4764944Y-8984650D01*
X4764944Y-8984650D02*
X4783991Y-8994174D01*
X4783991Y-8994174D02*
X4793515Y-9013222D01*
X4793515Y-9013222D02*
X4793515Y-9117984D01*
X5183991Y-8908460D02*
X5012563Y-9165603D01*
X5441134Y-8917984D02*
X5460182Y-8917984D01*
X5460182Y-8917984D02*
X5479229Y-8927508D01*
X5479229Y-8927508D02*
X5488753Y-8937031D01*
X5488753Y-8937031D02*
X5498277Y-8956079D01*
X5498277Y-8956079D02*
X5507801Y-8994174D01*
X5507801Y-8994174D02*
X5507801Y-9041793D01*
X5507801Y-9041793D02*
X5498277Y-9079889D01*
X5498277Y-9079889D02*
X5488753Y-9098936D01*
X5488753Y-9098936D02*
X5479229Y-9108460D01*
X5479229Y-9108460D02*
X5460182Y-9117984D01*
X5460182Y-9117984D02*
X5441134Y-9117984D01*
X5441134Y-9117984D02*
X5422087Y-9108460D01*
X5422087Y-9108460D02*
X5412563Y-9098936D01*
X5412563Y-9098936D02*
X5403039Y-9079889D01*
X5403039Y-9079889D02*
X5393515Y-9041793D01*
X5393515Y-9041793D02*
X5393515Y-8994174D01*
X5393515Y-8994174D02*
X5403039Y-8956079D01*
X5403039Y-8956079D02*
X5412563Y-8937031D01*
X5412563Y-8937031D02*
X5422087Y-8927508D01*
X5422087Y-8927508D02*
X5441134Y-8917984D01*
X5593515Y-9098936D02*
X5603039Y-9108460D01*
X5603039Y-9108460D02*
X5593515Y-9117984D01*
X5593515Y-9117984D02*
X5583991Y-9108460D01*
X5583991Y-9108460D02*
X5593515Y-9098936D01*
X5593515Y-9098936D02*
X5593515Y-9117984D01*
X5726848Y-8917984D02*
X5745896Y-8917984D01*
X5745896Y-8917984D02*
X5764944Y-8927508D01*
X5764944Y-8927508D02*
X5774467Y-8937031D01*
X5774467Y-8937031D02*
X5783991Y-8956079D01*
X5783991Y-8956079D02*
X5793515Y-8994174D01*
X5793515Y-8994174D02*
X5793515Y-9041793D01*
X5793515Y-9041793D02*
X5783991Y-9079889D01*
X5783991Y-9079889D02*
X5774467Y-9098936D01*
X5774467Y-9098936D02*
X5764944Y-9108460D01*
X5764944Y-9108460D02*
X5745896Y-9117984D01*
X5745896Y-9117984D02*
X5726848Y-9117984D01*
X5726848Y-9117984D02*
X5707801Y-9108460D01*
X5707801Y-9108460D02*
X5698277Y-9098936D01*
X5698277Y-9098936D02*
X5688753Y-9079889D01*
X5688753Y-9079889D02*
X5679229Y-9041793D01*
X5679229Y-9041793D02*
X5679229Y-8994174D01*
X5679229Y-8994174D02*
X5688753Y-8956079D01*
X5688753Y-8956079D02*
X5698277Y-8937031D01*
X5698277Y-8937031D02*
X5707801Y-8927508D01*
X5707801Y-8927508D02*
X5726848Y-8917984D01*
X5860182Y-8917984D02*
X5983991Y-8917984D01*
X5983991Y-8917984D02*
X5917325Y-8994174D01*
X5917325Y-8994174D02*
X5945896Y-8994174D01*
X5945896Y-8994174D02*
X5964944Y-9003698D01*
X5964944Y-9003698D02*
X5974467Y-9013222D01*
X5974467Y-9013222D02*
X5983991Y-9032270D01*
X5983991Y-9032270D02*
X5983991Y-9079889D01*
X5983991Y-9079889D02*
X5974467Y-9098936D01*
X5974467Y-9098936D02*
X5964944Y-9108460D01*
X5964944Y-9108460D02*
X5945896Y-9117984D01*
X5945896Y-9117984D02*
X5888753Y-9117984D01*
X5888753Y-9117984D02*
X5869706Y-9108460D01*
X5869706Y-9108460D02*
X5860182Y-9098936D01*
X6079229Y-9117984D02*
X6117325Y-9117984D01*
X6117325Y-9117984D02*
X6136372Y-9108460D01*
X6136372Y-9108460D02*
X6145896Y-9098936D01*
X6145896Y-9098936D02*
X6164944Y-9070365D01*
X6164944Y-9070365D02*
X6174467Y-9032270D01*
X6174467Y-9032270D02*
X6174467Y-8956079D01*
X6174467Y-8956079D02*
X6164944Y-8937031D01*
X6164944Y-8937031D02*
X6155420Y-8927508D01*
X6155420Y-8927508D02*
X6136372Y-8917984D01*
X6136372Y-8917984D02*
X6098277Y-8917984D01*
X6098277Y-8917984D02*
X6079229Y-8927508D01*
X6079229Y-8927508D02*
X6069706Y-8937031D01*
X6069706Y-8937031D02*
X6060182Y-8956079D01*
X6060182Y-8956079D02*
X6060182Y-9003698D01*
X6060182Y-9003698D02*
X6069706Y-9022746D01*
X6069706Y-9022746D02*
X6079229Y-9032270D01*
X6079229Y-9032270D02*
X6098277Y-9041793D01*
X6098277Y-9041793D02*
X6136372Y-9041793D01*
X6136372Y-9041793D02*
X6155420Y-9032270D01*
X6155420Y-9032270D02*
X6164944Y-9022746D01*
X6164944Y-9022746D02*
X6174467Y-9003698D01*
X6345896Y-8984650D02*
X6345896Y-9117984D01*
X6298277Y-8908460D02*
X6250658Y-9051317D01*
X6250658Y-9051317D02*
X6374467Y-9051317D01*
X6441134Y-8917984D02*
X6441134Y-8956079D01*
X6517325Y-8917984D02*
X6517325Y-8956079D01*
X6812563Y-9194174D02*
X6803039Y-9184650D01*
X6803039Y-9184650D02*
X6783991Y-9156079D01*
X6783991Y-9156079D02*
X6774468Y-9137031D01*
X6774468Y-9137031D02*
X6764944Y-9108460D01*
X6764944Y-9108460D02*
X6755420Y-9060841D01*
X6755420Y-9060841D02*
X6755420Y-9022746D01*
X6755420Y-9022746D02*
X6764944Y-8975127D01*
X6764944Y-8975127D02*
X6774468Y-8946555D01*
X6774468Y-8946555D02*
X6783991Y-8927508D01*
X6783991Y-8927508D02*
X6803039Y-8898936D01*
X6803039Y-8898936D02*
X6812563Y-8889412D01*
X6993515Y-9117984D02*
X6879229Y-9117984D01*
X6936372Y-9117984D02*
X6936372Y-8917984D01*
X6936372Y-8917984D02*
X6917325Y-8946555D01*
X6917325Y-8946555D02*
X6898277Y-8965603D01*
X6898277Y-8965603D02*
X6879229Y-8975127D01*
X7117325Y-8917984D02*
X7136372Y-8917984D01*
X7136372Y-8917984D02*
X7155420Y-8927508D01*
X7155420Y-8927508D02*
X7164944Y-8937031D01*
X7164944Y-8937031D02*
X7174468Y-8956079D01*
X7174468Y-8956079D02*
X7183991Y-8994174D01*
X7183991Y-8994174D02*
X7183991Y-9041793D01*
X7183991Y-9041793D02*
X7174468Y-9079889D01*
X7174468Y-9079889D02*
X7164944Y-9098936D01*
X7164944Y-9098936D02*
X7155420Y-9108460D01*
X7155420Y-9108460D02*
X7136372Y-9117984D01*
X7136372Y-9117984D02*
X7117325Y-9117984D01*
X7117325Y-9117984D02*
X7098277Y-9108460D01*
X7098277Y-9108460D02*
X7088753Y-9098936D01*
X7088753Y-9098936D02*
X7079229Y-9079889D01*
X7079229Y-9079889D02*
X7069706Y-9041793D01*
X7069706Y-9041793D02*
X7069706Y-8994174D01*
X7069706Y-8994174D02*
X7079229Y-8956079D01*
X7079229Y-8956079D02*
X7088753Y-8937031D01*
X7088753Y-8937031D02*
X7098277Y-8927508D01*
X7098277Y-8927508D02*
X7117325Y-8917984D01*
X7422087Y-9117984D02*
X7422087Y-8917984D01*
X7507801Y-9117984D02*
X7507801Y-9013222D01*
X7507801Y-9013222D02*
X7498277Y-8994174D01*
X7498277Y-8994174D02*
X7479230Y-8984650D01*
X7479230Y-8984650D02*
X7450658Y-8984650D01*
X7450658Y-8984650D02*
X7431610Y-8994174D01*
X7431610Y-8994174D02*
X7422087Y-9003698D01*
X7631610Y-9117984D02*
X7612563Y-9108460D01*
X7612563Y-9108460D02*
X7603039Y-9098936D01*
X7603039Y-9098936D02*
X7593515Y-9079889D01*
X7593515Y-9079889D02*
X7593515Y-9022746D01*
X7593515Y-9022746D02*
X7603039Y-9003698D01*
X7603039Y-9003698D02*
X7612563Y-8994174D01*
X7612563Y-8994174D02*
X7631610Y-8984650D01*
X7631610Y-8984650D02*
X7660182Y-8984650D01*
X7660182Y-8984650D02*
X7679230Y-8994174D01*
X7679230Y-8994174D02*
X7688753Y-9003698D01*
X7688753Y-9003698D02*
X7698277Y-9022746D01*
X7698277Y-9022746D02*
X7698277Y-9079889D01*
X7698277Y-9079889D02*
X7688753Y-9098936D01*
X7688753Y-9098936D02*
X7679230Y-9108460D01*
X7679230Y-9108460D02*
X7660182Y-9117984D01*
X7660182Y-9117984D02*
X7631610Y-9117984D01*
X7812563Y-9117984D02*
X7793515Y-9108460D01*
X7793515Y-9108460D02*
X7783991Y-9089412D01*
X7783991Y-9089412D02*
X7783991Y-8917984D01*
X7964944Y-9108460D02*
X7945896Y-9117984D01*
X7945896Y-9117984D02*
X7907801Y-9117984D01*
X7907801Y-9117984D02*
X7888753Y-9108460D01*
X7888753Y-9108460D02*
X7879230Y-9089412D01*
X7879230Y-9089412D02*
X7879230Y-9013222D01*
X7879230Y-9013222D02*
X7888753Y-8994174D01*
X7888753Y-8994174D02*
X7907801Y-8984650D01*
X7907801Y-8984650D02*
X7945896Y-8984650D01*
X7945896Y-8984650D02*
X7964944Y-8994174D01*
X7964944Y-8994174D02*
X7974468Y-9013222D01*
X7974468Y-9013222D02*
X7974468Y-9032270D01*
X7974468Y-9032270D02*
X7879230Y-9051317D01*
X8050658Y-9108460D02*
X8069706Y-9117984D01*
X8069706Y-9117984D02*
X8107801Y-9117984D01*
X8107801Y-9117984D02*
X8126849Y-9108460D01*
X8126849Y-9108460D02*
X8136372Y-9089412D01*
X8136372Y-9089412D02*
X8136372Y-9079889D01*
X8136372Y-9079889D02*
X8126849Y-9060841D01*
X8126849Y-9060841D02*
X8107801Y-9051317D01*
X8107801Y-9051317D02*
X8079230Y-9051317D01*
X8079230Y-9051317D02*
X8060182Y-9041793D01*
X8060182Y-9041793D02*
X8050658Y-9022746D01*
X8050658Y-9022746D02*
X8050658Y-9013222D01*
X8050658Y-9013222D02*
X8060182Y-8994174D01*
X8060182Y-8994174D02*
X8079230Y-8984650D01*
X8079230Y-8984650D02*
X8107801Y-8984650D01*
X8107801Y-8984650D02*
X8126849Y-8994174D01*
X8203039Y-9194174D02*
X8212563Y-9184650D01*
X8212563Y-9184650D02*
X8231611Y-9156079D01*
X8231611Y-9156079D02*
X8241134Y-9137031D01*
X8241134Y-9137031D02*
X8250658Y-9108460D01*
X8250658Y-9108460D02*
X8260182Y-9060841D01*
X8260182Y-9060841D02*
X8260182Y-9022746D01*
X8260182Y-9022746D02*
X8250658Y-8975127D01*
X8250658Y-8975127D02*
X8241134Y-8946555D01*
X8241134Y-8946555D02*
X8231611Y-8927508D01*
X8231611Y-8927508D02*
X8212563Y-8898936D01*
X8212563Y-8898936D02*
X8203039Y-8889412D01*
D13*
X3172500Y-9225500D02*
X3172500Y-9355500D01*
X3107500Y-9290500D02*
X3237500Y-9290500D01*
D11*
X3603039Y-9381984D02*
X3488753Y-9381984D01*
X3545896Y-9381984D02*
X3545896Y-9181984D01*
X3545896Y-9181984D02*
X3526848Y-9210555D01*
X3526848Y-9210555D02*
X3507801Y-9229603D01*
X3507801Y-9229603D02*
X3488753Y-9239127D01*
X3688753Y-9362936D02*
X3698277Y-9372460D01*
X3698277Y-9372460D02*
X3688753Y-9381984D01*
X3688753Y-9381984D02*
X3679229Y-9372460D01*
X3679229Y-9372460D02*
X3688753Y-9362936D01*
X3688753Y-9362936D02*
X3688753Y-9381984D01*
X3764943Y-9181984D02*
X3888753Y-9181984D01*
X3888753Y-9181984D02*
X3822086Y-9258174D01*
X3822086Y-9258174D02*
X3850658Y-9258174D01*
X3850658Y-9258174D02*
X3869705Y-9267698D01*
X3869705Y-9267698D02*
X3879229Y-9277222D01*
X3879229Y-9277222D02*
X3888753Y-9296270D01*
X3888753Y-9296270D02*
X3888753Y-9343889D01*
X3888753Y-9343889D02*
X3879229Y-9362936D01*
X3879229Y-9362936D02*
X3869705Y-9372460D01*
X3869705Y-9372460D02*
X3850658Y-9381984D01*
X3850658Y-9381984D02*
X3793515Y-9381984D01*
X3793515Y-9381984D02*
X3774467Y-9372460D01*
X3774467Y-9372460D02*
X3764943Y-9362936D01*
X4012562Y-9181984D02*
X4031610Y-9181984D01*
X4031610Y-9181984D02*
X4050658Y-9191508D01*
X4050658Y-9191508D02*
X4060182Y-9201031D01*
X4060182Y-9201031D02*
X4069705Y-9220079D01*
X4069705Y-9220079D02*
X4079229Y-9258174D01*
X4079229Y-9258174D02*
X4079229Y-9305793D01*
X4079229Y-9305793D02*
X4069705Y-9343889D01*
X4069705Y-9343889D02*
X4060182Y-9362936D01*
X4060182Y-9362936D02*
X4050658Y-9372460D01*
X4050658Y-9372460D02*
X4031610Y-9381984D01*
X4031610Y-9381984D02*
X4012562Y-9381984D01*
X4012562Y-9381984D02*
X3993515Y-9372460D01*
X3993515Y-9372460D02*
X3983991Y-9362936D01*
X3983991Y-9362936D02*
X3974467Y-9343889D01*
X3974467Y-9343889D02*
X3964943Y-9305793D01*
X3964943Y-9305793D02*
X3964943Y-9258174D01*
X3964943Y-9258174D02*
X3974467Y-9220079D01*
X3974467Y-9220079D02*
X3983991Y-9201031D01*
X3983991Y-9201031D02*
X3993515Y-9191508D01*
X3993515Y-9191508D02*
X4012562Y-9181984D01*
X4203039Y-9181984D02*
X4222086Y-9181984D01*
X4222086Y-9181984D02*
X4241134Y-9191508D01*
X4241134Y-9191508D02*
X4250658Y-9201031D01*
X4250658Y-9201031D02*
X4260182Y-9220079D01*
X4260182Y-9220079D02*
X4269705Y-9258174D01*
X4269705Y-9258174D02*
X4269705Y-9305793D01*
X4269705Y-9305793D02*
X4260182Y-9343889D01*
X4260182Y-9343889D02*
X4250658Y-9362936D01*
X4250658Y-9362936D02*
X4241134Y-9372460D01*
X4241134Y-9372460D02*
X4222086Y-9381984D01*
X4222086Y-9381984D02*
X4203039Y-9381984D01*
X4203039Y-9381984D02*
X4183991Y-9372460D01*
X4183991Y-9372460D02*
X4174467Y-9362936D01*
X4174467Y-9362936D02*
X4164943Y-9343889D01*
X4164943Y-9343889D02*
X4155420Y-9305793D01*
X4155420Y-9305793D02*
X4155420Y-9258174D01*
X4155420Y-9258174D02*
X4164943Y-9220079D01*
X4164943Y-9220079D02*
X4174467Y-9201031D01*
X4174467Y-9201031D02*
X4183991Y-9191508D01*
X4183991Y-9191508D02*
X4203039Y-9181984D01*
X4355420Y-9381984D02*
X4355420Y-9248650D01*
X4355420Y-9267698D02*
X4364944Y-9258174D01*
X4364944Y-9258174D02*
X4383991Y-9248650D01*
X4383991Y-9248650D02*
X4412563Y-9248650D01*
X4412563Y-9248650D02*
X4431610Y-9258174D01*
X4431610Y-9258174D02*
X4441134Y-9277222D01*
X4441134Y-9277222D02*
X4441134Y-9381984D01*
X4441134Y-9277222D02*
X4450658Y-9258174D01*
X4450658Y-9258174D02*
X4469705Y-9248650D01*
X4469705Y-9248650D02*
X4498277Y-9248650D01*
X4498277Y-9248650D02*
X4517325Y-9258174D01*
X4517325Y-9258174D02*
X4526848Y-9277222D01*
X4526848Y-9277222D02*
X4526848Y-9381984D01*
X4622086Y-9381984D02*
X4622086Y-9248650D01*
X4622086Y-9267698D02*
X4631610Y-9258174D01*
X4631610Y-9258174D02*
X4650658Y-9248650D01*
X4650658Y-9248650D02*
X4679229Y-9248650D01*
X4679229Y-9248650D02*
X4698277Y-9258174D01*
X4698277Y-9258174D02*
X4707801Y-9277222D01*
X4707801Y-9277222D02*
X4707801Y-9381984D01*
X4707801Y-9277222D02*
X4717325Y-9258174D01*
X4717325Y-9258174D02*
X4736372Y-9248650D01*
X4736372Y-9248650D02*
X4764944Y-9248650D01*
X4764944Y-9248650D02*
X4783991Y-9258174D01*
X4783991Y-9258174D02*
X4793515Y-9277222D01*
X4793515Y-9277222D02*
X4793515Y-9381984D01*
X5183991Y-9172460D02*
X5012563Y-9429603D01*
X5441134Y-9181984D02*
X5460182Y-9181984D01*
X5460182Y-9181984D02*
X5479229Y-9191508D01*
X5479229Y-9191508D02*
X5488753Y-9201031D01*
X5488753Y-9201031D02*
X5498277Y-9220079D01*
X5498277Y-9220079D02*
X5507801Y-9258174D01*
X5507801Y-9258174D02*
X5507801Y-9305793D01*
X5507801Y-9305793D02*
X5498277Y-9343889D01*
X5498277Y-9343889D02*
X5488753Y-9362936D01*
X5488753Y-9362936D02*
X5479229Y-9372460D01*
X5479229Y-9372460D02*
X5460182Y-9381984D01*
X5460182Y-9381984D02*
X5441134Y-9381984D01*
X5441134Y-9381984D02*
X5422087Y-9372460D01*
X5422087Y-9372460D02*
X5412563Y-9362936D01*
X5412563Y-9362936D02*
X5403039Y-9343889D01*
X5403039Y-9343889D02*
X5393515Y-9305793D01*
X5393515Y-9305793D02*
X5393515Y-9258174D01*
X5393515Y-9258174D02*
X5403039Y-9220079D01*
X5403039Y-9220079D02*
X5412563Y-9201031D01*
X5412563Y-9201031D02*
X5422087Y-9191508D01*
X5422087Y-9191508D02*
X5441134Y-9181984D01*
X5593515Y-9362936D02*
X5603039Y-9372460D01*
X5603039Y-9372460D02*
X5593515Y-9381984D01*
X5593515Y-9381984D02*
X5583991Y-9372460D01*
X5583991Y-9372460D02*
X5593515Y-9362936D01*
X5593515Y-9362936D02*
X5593515Y-9381984D01*
X5726848Y-9181984D02*
X5745896Y-9181984D01*
X5745896Y-9181984D02*
X5764944Y-9191508D01*
X5764944Y-9191508D02*
X5774467Y-9201031D01*
X5774467Y-9201031D02*
X5783991Y-9220079D01*
X5783991Y-9220079D02*
X5793515Y-9258174D01*
X5793515Y-9258174D02*
X5793515Y-9305793D01*
X5793515Y-9305793D02*
X5783991Y-9343889D01*
X5783991Y-9343889D02*
X5774467Y-9362936D01*
X5774467Y-9362936D02*
X5764944Y-9372460D01*
X5764944Y-9372460D02*
X5745896Y-9381984D01*
X5745896Y-9381984D02*
X5726848Y-9381984D01*
X5726848Y-9381984D02*
X5707801Y-9372460D01*
X5707801Y-9372460D02*
X5698277Y-9362936D01*
X5698277Y-9362936D02*
X5688753Y-9343889D01*
X5688753Y-9343889D02*
X5679229Y-9305793D01*
X5679229Y-9305793D02*
X5679229Y-9258174D01*
X5679229Y-9258174D02*
X5688753Y-9220079D01*
X5688753Y-9220079D02*
X5698277Y-9201031D01*
X5698277Y-9201031D02*
X5707801Y-9191508D01*
X5707801Y-9191508D02*
X5726848Y-9181984D01*
X5974467Y-9181984D02*
X5879229Y-9181984D01*
X5879229Y-9181984D02*
X5869706Y-9277222D01*
X5869706Y-9277222D02*
X5879229Y-9267698D01*
X5879229Y-9267698D02*
X5898277Y-9258174D01*
X5898277Y-9258174D02*
X5945896Y-9258174D01*
X5945896Y-9258174D02*
X5964944Y-9267698D01*
X5964944Y-9267698D02*
X5974467Y-9277222D01*
X5974467Y-9277222D02*
X5983991Y-9296270D01*
X5983991Y-9296270D02*
X5983991Y-9343889D01*
X5983991Y-9343889D02*
X5974467Y-9362936D01*
X5974467Y-9362936D02*
X5964944Y-9372460D01*
X5964944Y-9372460D02*
X5945896Y-9381984D01*
X5945896Y-9381984D02*
X5898277Y-9381984D01*
X5898277Y-9381984D02*
X5879229Y-9372460D01*
X5879229Y-9372460D02*
X5869706Y-9362936D01*
X6174467Y-9381984D02*
X6060182Y-9381984D01*
X6117325Y-9381984D02*
X6117325Y-9181984D01*
X6117325Y-9181984D02*
X6098277Y-9210555D01*
X6098277Y-9210555D02*
X6079229Y-9229603D01*
X6079229Y-9229603D02*
X6060182Y-9239127D01*
X6250658Y-9201031D02*
X6260182Y-9191508D01*
X6260182Y-9191508D02*
X6279229Y-9181984D01*
X6279229Y-9181984D02*
X6326848Y-9181984D01*
X6326848Y-9181984D02*
X6345896Y-9191508D01*
X6345896Y-9191508D02*
X6355420Y-9201031D01*
X6355420Y-9201031D02*
X6364944Y-9220079D01*
X6364944Y-9220079D02*
X6364944Y-9239127D01*
X6364944Y-9239127D02*
X6355420Y-9267698D01*
X6355420Y-9267698D02*
X6241134Y-9381984D01*
X6241134Y-9381984D02*
X6364944Y-9381984D01*
X6441134Y-9181984D02*
X6441134Y-9220079D01*
X6517325Y-9181984D02*
X6517325Y-9220079D01*
X6812563Y-9458174D02*
X6803039Y-9448650D01*
X6803039Y-9448650D02*
X6783991Y-9420079D01*
X6783991Y-9420079D02*
X6774468Y-9401031D01*
X6774468Y-9401031D02*
X6764944Y-9372460D01*
X6764944Y-9372460D02*
X6755420Y-9324841D01*
X6755420Y-9324841D02*
X6755420Y-9286746D01*
X6755420Y-9286746D02*
X6764944Y-9239127D01*
X6764944Y-9239127D02*
X6774468Y-9210555D01*
X6774468Y-9210555D02*
X6783991Y-9191508D01*
X6783991Y-9191508D02*
X6803039Y-9162936D01*
X6803039Y-9162936D02*
X6812563Y-9153412D01*
X6993515Y-9381984D02*
X6879229Y-9381984D01*
X6936372Y-9381984D02*
X6936372Y-9181984D01*
X6936372Y-9181984D02*
X6917325Y-9210555D01*
X6917325Y-9210555D02*
X6898277Y-9229603D01*
X6898277Y-9229603D02*
X6879229Y-9239127D01*
X7117325Y-9181984D02*
X7136372Y-9181984D01*
X7136372Y-9181984D02*
X7155420Y-9191508D01*
X7155420Y-9191508D02*
X7164944Y-9201031D01*
X7164944Y-9201031D02*
X7174468Y-9220079D01*
X7174468Y-9220079D02*
X7183991Y-9258174D01*
X7183991Y-9258174D02*
X7183991Y-9305793D01*
X7183991Y-9305793D02*
X7174468Y-9343889D01*
X7174468Y-9343889D02*
X7164944Y-9362936D01*
X7164944Y-9362936D02*
X7155420Y-9372460D01*
X7155420Y-9372460D02*
X7136372Y-9381984D01*
X7136372Y-9381984D02*
X7117325Y-9381984D01*
X7117325Y-9381984D02*
X7098277Y-9372460D01*
X7098277Y-9372460D02*
X7088753Y-9362936D01*
X7088753Y-9362936D02*
X7079229Y-9343889D01*
X7079229Y-9343889D02*
X7069706Y-9305793D01*
X7069706Y-9305793D02*
X7069706Y-9258174D01*
X7069706Y-9258174D02*
X7079229Y-9220079D01*
X7079229Y-9220079D02*
X7088753Y-9201031D01*
X7088753Y-9201031D02*
X7098277Y-9191508D01*
X7098277Y-9191508D02*
X7117325Y-9181984D01*
X7422087Y-9381984D02*
X7422087Y-9181984D01*
X7507801Y-9381984D02*
X7507801Y-9277222D01*
X7507801Y-9277222D02*
X7498277Y-9258174D01*
X7498277Y-9258174D02*
X7479230Y-9248650D01*
X7479230Y-9248650D02*
X7450658Y-9248650D01*
X7450658Y-9248650D02*
X7431610Y-9258174D01*
X7431610Y-9258174D02*
X7422087Y-9267698D01*
X7631610Y-9381984D02*
X7612563Y-9372460D01*
X7612563Y-9372460D02*
X7603039Y-9362936D01*
X7603039Y-9362936D02*
X7593515Y-9343889D01*
X7593515Y-9343889D02*
X7593515Y-9286746D01*
X7593515Y-9286746D02*
X7603039Y-9267698D01*
X7603039Y-9267698D02*
X7612563Y-9258174D01*
X7612563Y-9258174D02*
X7631610Y-9248650D01*
X7631610Y-9248650D02*
X7660182Y-9248650D01*
X7660182Y-9248650D02*
X7679230Y-9258174D01*
X7679230Y-9258174D02*
X7688753Y-9267698D01*
X7688753Y-9267698D02*
X7698277Y-9286746D01*
X7698277Y-9286746D02*
X7698277Y-9343889D01*
X7698277Y-9343889D02*
X7688753Y-9362936D01*
X7688753Y-9362936D02*
X7679230Y-9372460D01*
X7679230Y-9372460D02*
X7660182Y-9381984D01*
X7660182Y-9381984D02*
X7631610Y-9381984D01*
X7812563Y-9381984D02*
X7793515Y-9372460D01*
X7793515Y-9372460D02*
X7783991Y-9353412D01*
X7783991Y-9353412D02*
X7783991Y-9181984D01*
X7964944Y-9372460D02*
X7945896Y-9381984D01*
X7945896Y-9381984D02*
X7907801Y-9381984D01*
X7907801Y-9381984D02*
X7888753Y-9372460D01*
X7888753Y-9372460D02*
X7879230Y-9353412D01*
X7879230Y-9353412D02*
X7879230Y-9277222D01*
X7879230Y-9277222D02*
X7888753Y-9258174D01*
X7888753Y-9258174D02*
X7907801Y-9248650D01*
X7907801Y-9248650D02*
X7945896Y-9248650D01*
X7945896Y-9248650D02*
X7964944Y-9258174D01*
X7964944Y-9258174D02*
X7974468Y-9277222D01*
X7974468Y-9277222D02*
X7974468Y-9296270D01*
X7974468Y-9296270D02*
X7879230Y-9315317D01*
X8050658Y-9372460D02*
X8069706Y-9381984D01*
X8069706Y-9381984D02*
X8107801Y-9381984D01*
X8107801Y-9381984D02*
X8126849Y-9372460D01*
X8126849Y-9372460D02*
X8136372Y-9353412D01*
X8136372Y-9353412D02*
X8136372Y-9343889D01*
X8136372Y-9343889D02*
X8126849Y-9324841D01*
X8126849Y-9324841D02*
X8107801Y-9315317D01*
X8107801Y-9315317D02*
X8079230Y-9315317D01*
X8079230Y-9315317D02*
X8060182Y-9305793D01*
X8060182Y-9305793D02*
X8050658Y-9286746D01*
X8050658Y-9286746D02*
X8050658Y-9277222D01*
X8050658Y-9277222D02*
X8060182Y-9258174D01*
X8060182Y-9258174D02*
X8079230Y-9248650D01*
X8079230Y-9248650D02*
X8107801Y-9248650D01*
X8107801Y-9248650D02*
X8126849Y-9258174D01*
X8203039Y-9458174D02*
X8212563Y-9448650D01*
X8212563Y-9448650D02*
X8231611Y-9420079D01*
X8231611Y-9420079D02*
X8241134Y-9401031D01*
X8241134Y-9401031D02*
X8250658Y-9372460D01*
X8250658Y-9372460D02*
X8260182Y-9324841D01*
X8260182Y-9324841D02*
X8260182Y-9286746D01*
X8260182Y-9286746D02*
X8250658Y-9239127D01*
X8250658Y-9239127D02*
X8241134Y-9210555D01*
X8241134Y-9210555D02*
X8231611Y-9191508D01*
X8231611Y-9191508D02*
X8212563Y-9162936D01*
X8212563Y-9162936D02*
X8203039Y-9153412D01*
X3208211Y-9625211D02*
X3208211Y-9483789D01*
X3066789Y-9483789D01*
X3066789Y-9625211D01*
X3208211Y-9625211D01*
X3488753Y-9465031D02*
X3498277Y-9455508D01*
X3498277Y-9455508D02*
X3517324Y-9445984D01*
X3517324Y-9445984D02*
X3564943Y-9445984D01*
X3564943Y-9445984D02*
X3583991Y-9455508D01*
X3583991Y-9455508D02*
X3593515Y-9465031D01*
X3593515Y-9465031D02*
X3603039Y-9484079D01*
X3603039Y-9484079D02*
X3603039Y-9503127D01*
X3603039Y-9503127D02*
X3593515Y-9531698D01*
X3593515Y-9531698D02*
X3479229Y-9645984D01*
X3479229Y-9645984D02*
X3603039Y-9645984D01*
X3688753Y-9626936D02*
X3698277Y-9636460D01*
X3698277Y-9636460D02*
X3688753Y-9645984D01*
X3688753Y-9645984D02*
X3679229Y-9636460D01*
X3679229Y-9636460D02*
X3688753Y-9626936D01*
X3688753Y-9626936D02*
X3688753Y-9645984D01*
X3822086Y-9445984D02*
X3841134Y-9445984D01*
X3841134Y-9445984D02*
X3860182Y-9455508D01*
X3860182Y-9455508D02*
X3869705Y-9465031D01*
X3869705Y-9465031D02*
X3879229Y-9484079D01*
X3879229Y-9484079D02*
X3888753Y-9522174D01*
X3888753Y-9522174D02*
X3888753Y-9569793D01*
X3888753Y-9569793D02*
X3879229Y-9607889D01*
X3879229Y-9607889D02*
X3869705Y-9626936D01*
X3869705Y-9626936D02*
X3860182Y-9636460D01*
X3860182Y-9636460D02*
X3841134Y-9645984D01*
X3841134Y-9645984D02*
X3822086Y-9645984D01*
X3822086Y-9645984D02*
X3803039Y-9636460D01*
X3803039Y-9636460D02*
X3793515Y-9626936D01*
X3793515Y-9626936D02*
X3783991Y-9607889D01*
X3783991Y-9607889D02*
X3774467Y-9569793D01*
X3774467Y-9569793D02*
X3774467Y-9522174D01*
X3774467Y-9522174D02*
X3783991Y-9484079D01*
X3783991Y-9484079D02*
X3793515Y-9465031D01*
X3793515Y-9465031D02*
X3803039Y-9455508D01*
X3803039Y-9455508D02*
X3822086Y-9445984D01*
X4012562Y-9445984D02*
X4031610Y-9445984D01*
X4031610Y-9445984D02*
X4050658Y-9455508D01*
X4050658Y-9455508D02*
X4060182Y-9465031D01*
X4060182Y-9465031D02*
X4069705Y-9484079D01*
X4069705Y-9484079D02*
X4079229Y-9522174D01*
X4079229Y-9522174D02*
X4079229Y-9569793D01*
X4079229Y-9569793D02*
X4069705Y-9607889D01*
X4069705Y-9607889D02*
X4060182Y-9626936D01*
X4060182Y-9626936D02*
X4050658Y-9636460D01*
X4050658Y-9636460D02*
X4031610Y-9645984D01*
X4031610Y-9645984D02*
X4012562Y-9645984D01*
X4012562Y-9645984D02*
X3993515Y-9636460D01*
X3993515Y-9636460D02*
X3983991Y-9626936D01*
X3983991Y-9626936D02*
X3974467Y-9607889D01*
X3974467Y-9607889D02*
X3964943Y-9569793D01*
X3964943Y-9569793D02*
X3964943Y-9522174D01*
X3964943Y-9522174D02*
X3974467Y-9484079D01*
X3974467Y-9484079D02*
X3983991Y-9465031D01*
X3983991Y-9465031D02*
X3993515Y-9455508D01*
X3993515Y-9455508D02*
X4012562Y-9445984D01*
X4203039Y-9445984D02*
X4222086Y-9445984D01*
X4222086Y-9445984D02*
X4241134Y-9455508D01*
X4241134Y-9455508D02*
X4250658Y-9465031D01*
X4250658Y-9465031D02*
X4260182Y-9484079D01*
X4260182Y-9484079D02*
X4269705Y-9522174D01*
X4269705Y-9522174D02*
X4269705Y-9569793D01*
X4269705Y-9569793D02*
X4260182Y-9607889D01*
X4260182Y-9607889D02*
X4250658Y-9626936D01*
X4250658Y-9626936D02*
X4241134Y-9636460D01*
X4241134Y-9636460D02*
X4222086Y-9645984D01*
X4222086Y-9645984D02*
X4203039Y-9645984D01*
X4203039Y-9645984D02*
X4183991Y-9636460D01*
X4183991Y-9636460D02*
X4174467Y-9626936D01*
X4174467Y-9626936D02*
X4164943Y-9607889D01*
X4164943Y-9607889D02*
X4155420Y-9569793D01*
X4155420Y-9569793D02*
X4155420Y-9522174D01*
X4155420Y-9522174D02*
X4164943Y-9484079D01*
X4164943Y-9484079D02*
X4174467Y-9465031D01*
X4174467Y-9465031D02*
X4183991Y-9455508D01*
X4183991Y-9455508D02*
X4203039Y-9445984D01*
X4355420Y-9645984D02*
X4355420Y-9512650D01*
X4355420Y-9531698D02*
X4364944Y-9522174D01*
X4364944Y-9522174D02*
X4383991Y-9512650D01*
X4383991Y-9512650D02*
X4412563Y-9512650D01*
X4412563Y-9512650D02*
X4431610Y-9522174D01*
X4431610Y-9522174D02*
X4441134Y-9541222D01*
X4441134Y-9541222D02*
X4441134Y-9645984D01*
X4441134Y-9541222D02*
X4450658Y-9522174D01*
X4450658Y-9522174D02*
X4469705Y-9512650D01*
X4469705Y-9512650D02*
X4498277Y-9512650D01*
X4498277Y-9512650D02*
X4517325Y-9522174D01*
X4517325Y-9522174D02*
X4526848Y-9541222D01*
X4526848Y-9541222D02*
X4526848Y-9645984D01*
X4622086Y-9645984D02*
X4622086Y-9512650D01*
X4622086Y-9531698D02*
X4631610Y-9522174D01*
X4631610Y-9522174D02*
X4650658Y-9512650D01*
X4650658Y-9512650D02*
X4679229Y-9512650D01*
X4679229Y-9512650D02*
X4698277Y-9522174D01*
X4698277Y-9522174D02*
X4707801Y-9541222D01*
X4707801Y-9541222D02*
X4707801Y-9645984D01*
X4707801Y-9541222D02*
X4717325Y-9522174D01*
X4717325Y-9522174D02*
X4736372Y-9512650D01*
X4736372Y-9512650D02*
X4764944Y-9512650D01*
X4764944Y-9512650D02*
X4783991Y-9522174D01*
X4783991Y-9522174D02*
X4793515Y-9541222D01*
X4793515Y-9541222D02*
X4793515Y-9645984D01*
X5183991Y-9436460D02*
X5012563Y-9693603D01*
X5441134Y-9445984D02*
X5460182Y-9445984D01*
X5460182Y-9445984D02*
X5479229Y-9455508D01*
X5479229Y-9455508D02*
X5488753Y-9465031D01*
X5488753Y-9465031D02*
X5498277Y-9484079D01*
X5498277Y-9484079D02*
X5507801Y-9522174D01*
X5507801Y-9522174D02*
X5507801Y-9569793D01*
X5507801Y-9569793D02*
X5498277Y-9607889D01*
X5498277Y-9607889D02*
X5488753Y-9626936D01*
X5488753Y-9626936D02*
X5479229Y-9636460D01*
X5479229Y-9636460D02*
X5460182Y-9645984D01*
X5460182Y-9645984D02*
X5441134Y-9645984D01*
X5441134Y-9645984D02*
X5422087Y-9636460D01*
X5422087Y-9636460D02*
X5412563Y-9626936D01*
X5412563Y-9626936D02*
X5403039Y-9607889D01*
X5403039Y-9607889D02*
X5393515Y-9569793D01*
X5393515Y-9569793D02*
X5393515Y-9522174D01*
X5393515Y-9522174D02*
X5403039Y-9484079D01*
X5403039Y-9484079D02*
X5412563Y-9465031D01*
X5412563Y-9465031D02*
X5422087Y-9455508D01*
X5422087Y-9455508D02*
X5441134Y-9445984D01*
X5593515Y-9626936D02*
X5603039Y-9636460D01*
X5603039Y-9636460D02*
X5593515Y-9645984D01*
X5593515Y-9645984D02*
X5583991Y-9636460D01*
X5583991Y-9636460D02*
X5593515Y-9626936D01*
X5593515Y-9626936D02*
X5593515Y-9645984D01*
X5726848Y-9445984D02*
X5745896Y-9445984D01*
X5745896Y-9445984D02*
X5764944Y-9455508D01*
X5764944Y-9455508D02*
X5774467Y-9465031D01*
X5774467Y-9465031D02*
X5783991Y-9484079D01*
X5783991Y-9484079D02*
X5793515Y-9522174D01*
X5793515Y-9522174D02*
X5793515Y-9569793D01*
X5793515Y-9569793D02*
X5783991Y-9607889D01*
X5783991Y-9607889D02*
X5774467Y-9626936D01*
X5774467Y-9626936D02*
X5764944Y-9636460D01*
X5764944Y-9636460D02*
X5745896Y-9645984D01*
X5745896Y-9645984D02*
X5726848Y-9645984D01*
X5726848Y-9645984D02*
X5707801Y-9636460D01*
X5707801Y-9636460D02*
X5698277Y-9626936D01*
X5698277Y-9626936D02*
X5688753Y-9607889D01*
X5688753Y-9607889D02*
X5679229Y-9569793D01*
X5679229Y-9569793D02*
X5679229Y-9522174D01*
X5679229Y-9522174D02*
X5688753Y-9484079D01*
X5688753Y-9484079D02*
X5698277Y-9465031D01*
X5698277Y-9465031D02*
X5707801Y-9455508D01*
X5707801Y-9455508D02*
X5726848Y-9445984D01*
X5860182Y-9445984D02*
X5993515Y-9445984D01*
X5993515Y-9445984D02*
X5907801Y-9645984D01*
X6098277Y-9531698D02*
X6079229Y-9522174D01*
X6079229Y-9522174D02*
X6069706Y-9512650D01*
X6069706Y-9512650D02*
X6060182Y-9493603D01*
X6060182Y-9493603D02*
X6060182Y-9484079D01*
X6060182Y-9484079D02*
X6069706Y-9465031D01*
X6069706Y-9465031D02*
X6079229Y-9455508D01*
X6079229Y-9455508D02*
X6098277Y-9445984D01*
X6098277Y-9445984D02*
X6136372Y-9445984D01*
X6136372Y-9445984D02*
X6155420Y-9455508D01*
X6155420Y-9455508D02*
X6164944Y-9465031D01*
X6164944Y-9465031D02*
X6174467Y-9484079D01*
X6174467Y-9484079D02*
X6174467Y-9493603D01*
X6174467Y-9493603D02*
X6164944Y-9512650D01*
X6164944Y-9512650D02*
X6155420Y-9522174D01*
X6155420Y-9522174D02*
X6136372Y-9531698D01*
X6136372Y-9531698D02*
X6098277Y-9531698D01*
X6098277Y-9531698D02*
X6079229Y-9541222D01*
X6079229Y-9541222D02*
X6069706Y-9550746D01*
X6069706Y-9550746D02*
X6060182Y-9569793D01*
X6060182Y-9569793D02*
X6060182Y-9607889D01*
X6060182Y-9607889D02*
X6069706Y-9626936D01*
X6069706Y-9626936D02*
X6079229Y-9636460D01*
X6079229Y-9636460D02*
X6098277Y-9645984D01*
X6098277Y-9645984D02*
X6136372Y-9645984D01*
X6136372Y-9645984D02*
X6155420Y-9636460D01*
X6155420Y-9636460D02*
X6164944Y-9626936D01*
X6164944Y-9626936D02*
X6174467Y-9607889D01*
X6174467Y-9607889D02*
X6174467Y-9569793D01*
X6174467Y-9569793D02*
X6164944Y-9550746D01*
X6164944Y-9550746D02*
X6155420Y-9541222D01*
X6155420Y-9541222D02*
X6136372Y-9531698D01*
X6241134Y-9445984D02*
X6374467Y-9445984D01*
X6374467Y-9445984D02*
X6288753Y-9645984D01*
X6441134Y-9445984D02*
X6441134Y-9484079D01*
X6517325Y-9445984D02*
X6517325Y-9484079D01*
X6812563Y-9722174D02*
X6803039Y-9712650D01*
X6803039Y-9712650D02*
X6783991Y-9684079D01*
X6783991Y-9684079D02*
X6774468Y-9665031D01*
X6774468Y-9665031D02*
X6764944Y-9636460D01*
X6764944Y-9636460D02*
X6755420Y-9588841D01*
X6755420Y-9588841D02*
X6755420Y-9550746D01*
X6755420Y-9550746D02*
X6764944Y-9503127D01*
X6764944Y-9503127D02*
X6774468Y-9474555D01*
X6774468Y-9474555D02*
X6783991Y-9455508D01*
X6783991Y-9455508D02*
X6803039Y-9426936D01*
X6803039Y-9426936D02*
X6812563Y-9417412D01*
X6974468Y-9512650D02*
X6974468Y-9645984D01*
X6926848Y-9436460D02*
X6879229Y-9579317D01*
X6879229Y-9579317D02*
X7003039Y-9579317D01*
X7231610Y-9645984D02*
X7231610Y-9445984D01*
X7317325Y-9645984D02*
X7317325Y-9541222D01*
X7317325Y-9541222D02*
X7307801Y-9522174D01*
X7307801Y-9522174D02*
X7288753Y-9512650D01*
X7288753Y-9512650D02*
X7260182Y-9512650D01*
X7260182Y-9512650D02*
X7241134Y-9522174D01*
X7241134Y-9522174D02*
X7231610Y-9531698D01*
X7441134Y-9645984D02*
X7422087Y-9636460D01*
X7422087Y-9636460D02*
X7412563Y-9626936D01*
X7412563Y-9626936D02*
X7403039Y-9607889D01*
X7403039Y-9607889D02*
X7403039Y-9550746D01*
X7403039Y-9550746D02*
X7412563Y-9531698D01*
X7412563Y-9531698D02*
X7422087Y-9522174D01*
X7422087Y-9522174D02*
X7441134Y-9512650D01*
X7441134Y-9512650D02*
X7469706Y-9512650D01*
X7469706Y-9512650D02*
X7488753Y-9522174D01*
X7488753Y-9522174D02*
X7498277Y-9531698D01*
X7498277Y-9531698D02*
X7507801Y-9550746D01*
X7507801Y-9550746D02*
X7507801Y-9607889D01*
X7507801Y-9607889D02*
X7498277Y-9626936D01*
X7498277Y-9626936D02*
X7488753Y-9636460D01*
X7488753Y-9636460D02*
X7469706Y-9645984D01*
X7469706Y-9645984D02*
X7441134Y-9645984D01*
X7622087Y-9645984D02*
X7603039Y-9636460D01*
X7603039Y-9636460D02*
X7593515Y-9617412D01*
X7593515Y-9617412D02*
X7593515Y-9445984D01*
X7774468Y-9636460D02*
X7755420Y-9645984D01*
X7755420Y-9645984D02*
X7717325Y-9645984D01*
X7717325Y-9645984D02*
X7698277Y-9636460D01*
X7698277Y-9636460D02*
X7688753Y-9617412D01*
X7688753Y-9617412D02*
X7688753Y-9541222D01*
X7688753Y-9541222D02*
X7698277Y-9522174D01*
X7698277Y-9522174D02*
X7717325Y-9512650D01*
X7717325Y-9512650D02*
X7755420Y-9512650D01*
X7755420Y-9512650D02*
X7774468Y-9522174D01*
X7774468Y-9522174D02*
X7783991Y-9541222D01*
X7783991Y-9541222D02*
X7783991Y-9560270D01*
X7783991Y-9560270D02*
X7688753Y-9579317D01*
X7860182Y-9636460D02*
X7879230Y-9645984D01*
X7879230Y-9645984D02*
X7917325Y-9645984D01*
X7917325Y-9645984D02*
X7936372Y-9636460D01*
X7936372Y-9636460D02*
X7945896Y-9617412D01*
X7945896Y-9617412D02*
X7945896Y-9607889D01*
X7945896Y-9607889D02*
X7936372Y-9588841D01*
X7936372Y-9588841D02*
X7917325Y-9579317D01*
X7917325Y-9579317D02*
X7888753Y-9579317D01*
X7888753Y-9579317D02*
X7869706Y-9569793D01*
X7869706Y-9569793D02*
X7860182Y-9550746D01*
X7860182Y-9550746D02*
X7860182Y-9541222D01*
X7860182Y-9541222D02*
X7869706Y-9522174D01*
X7869706Y-9522174D02*
X7888753Y-9512650D01*
X7888753Y-9512650D02*
X7917325Y-9512650D01*
X7917325Y-9512650D02*
X7936372Y-9522174D01*
X8012563Y-9722174D02*
X8022087Y-9712650D01*
X8022087Y-9712650D02*
X8041134Y-9684079D01*
X8041134Y-9684079D02*
X8050658Y-9665031D01*
X8050658Y-9665031D02*
X8060182Y-9636460D01*
X8060182Y-9636460D02*
X8069706Y-9588841D01*
X8069706Y-9588841D02*
X8069706Y-9550746D01*
X8069706Y-9550746D02*
X8060182Y-9503127D01*
X8060182Y-9503127D02*
X8050658Y-9474555D01*
X8050658Y-9474555D02*
X8041134Y-9455508D01*
X8041134Y-9455508D02*
X8022087Y-9426936D01*
X8022087Y-9426936D02*
X8012563Y-9417412D01*
M02*
