G04 #@! TF.GenerationSoftware,KiCad,Pcbnew,9.0.0*
G04 #@! TF.CreationDate,2025-03-14T10:33:54+00:00*
G04 #@! TF.ProjectId,paxtogeddon-pcb,70617874-6f67-4656-9464-6f6e2d706362,rev?*
G04 #@! TF.SameCoordinates,Original*
G04 #@! TF.FileFunction,Soldermask,Top*
G04 #@! TF.FilePolarity,Negative*
%FSLAX46Y46*%
G04 Gerber Fmt 4.6, Leading zero omitted, Abs format (unit mm)*
G04 Created by KiCad (PCBNEW 9.0.0) date 2025-03-14 10:33:54*
%MOMM*%
%LPD*%
G01*
G04 APERTURE LIST*
G04 Aperture macros list*
%AMRoundRect*
0 Rectangle with rounded corners*
0 $1 Rounding radius*
0 $2 $3 $4 $5 $6 $7 $8 $9 X,Y pos of 4 corners*
0 Add a 4 corners polygon primitive as box body*
4,1,4,$2,$3,$4,$5,$6,$7,$8,$9,$2,$3,0*
0 Add four circle primitives for the rounded corners*
1,1,$1+$1,$2,$3*
1,1,$1+$1,$4,$5*
1,1,$1+$1,$6,$7*
1,1,$1+$1,$8,$9*
0 Add four rect primitives between the rounded corners*
20,1,$1+$1,$2,$3,$4,$5,0*
20,1,$1+$1,$4,$5,$6,$7,0*
20,1,$1+$1,$6,$7,$8,$9,0*
20,1,$1+$1,$8,$9,$2,$3,0*%
G04 Aperture macros list end*
%ADD10R,3.000000X3.000000*%
%ADD11C,3.000000*%
%ADD12RoundRect,0.250000X0.350000X-0.850000X0.350000X0.850000X-0.350000X0.850000X-0.350000X-0.850000X0*%
%ADD13RoundRect,0.249997X2.650003X-2.950003X2.650003X2.950003X-2.650003X2.950003X-2.650003X-2.950003X0*%
%ADD14RoundRect,0.102000X-0.754000X-0.754000X0.754000X-0.754000X0.754000X0.754000X-0.754000X0.754000X0*%
%ADD15C,1.712000*%
%ADD16C,3.204000*%
%ADD17RoundRect,0.250000X-0.650000X1.500000X-0.650000X-1.500000X0.650000X-1.500000X0.650000X1.500000X0*%
%ADD18O,1.700000X1.700000*%
%ADD19R,1.700000X1.700000*%
%ADD20RoundRect,0.250000X0.450000X-0.262500X0.450000X0.262500X-0.450000X0.262500X-0.450000X-0.262500X0*%
%ADD21RoundRect,0.250000X-0.450000X0.262500X-0.450000X-0.262500X0.450000X-0.262500X0.450000X0.262500X0*%
%ADD22RoundRect,0.150000X0.587500X0.150000X-0.587500X0.150000X-0.587500X-0.150000X0.587500X-0.150000X0*%
%ADD23RoundRect,0.150000X-0.587500X-0.150000X0.587500X-0.150000X0.587500X0.150000X-0.587500X0.150000X0*%
%ADD24RoundRect,0.250000X-0.337500X-0.475000X0.337500X-0.475000X0.337500X0.475000X-0.337500X0.475000X0*%
%ADD25RoundRect,0.250000X0.337500X0.475000X-0.337500X0.475000X-0.337500X-0.475000X0.337500X-0.475000X0*%
%ADD26RoundRect,0.102000X-0.762000X1.512500X-0.762000X-1.512500X0.762000X-1.512500X0.762000X1.512500X0*%
G04 APERTURE END LIST*
D10*
X70900000Y-26500000D03*
D11*
X65900000Y-26500000D03*
X60900000Y-26500000D03*
X55900000Y-26500000D03*
X50900000Y-26500000D03*
X45900000Y-26500000D03*
X40900000Y-26500000D03*
X35900000Y-26500000D03*
D10*
X35567500Y-75567500D03*
D11*
X40567500Y-75567500D03*
D12*
X37392500Y-52100000D03*
D13*
X39672500Y-45800000D03*
D12*
X41952500Y-52100000D03*
D14*
X55660000Y-33300000D03*
D15*
X58200000Y-33300000D03*
X60740000Y-33300000D03*
X63280000Y-33300000D03*
D16*
X47820000Y-33900000D03*
X71120000Y-33900000D03*
X71120000Y-57700000D03*
X47820000Y-57700000D03*
D17*
X35400000Y-67100000D03*
X35400000Y-62100000D03*
D18*
X41800000Y-66865000D03*
D19*
X41800000Y-64325000D03*
D20*
X69000000Y-45487500D03*
X69000000Y-47312500D03*
X65400000Y-45487500D03*
X65400000Y-47312500D03*
X62100000Y-45487500D03*
X62100000Y-47312500D03*
X59800000Y-54287500D03*
X59800000Y-56112500D03*
D19*
X40300000Y-36375000D03*
D18*
X40300000Y-33835000D03*
D21*
X48200000Y-76987500D03*
X48200000Y-78812500D03*
D22*
X55937500Y-51250000D03*
X55937500Y-49350000D03*
X54062500Y-50300000D03*
D23*
X50962500Y-40550000D03*
X50962500Y-42450000D03*
X52837500Y-41500000D03*
X65362500Y-40550000D03*
X65362500Y-42450000D03*
X67237500Y-41500000D03*
D22*
X50337500Y-51250000D03*
X50337500Y-49350000D03*
X48462500Y-50300000D03*
D19*
X35500000Y-36375000D03*
D18*
X35500000Y-33835000D03*
D23*
X55762500Y-40550000D03*
X55762500Y-42450000D03*
X57637500Y-41500000D03*
D20*
X52600000Y-56112500D03*
X52600000Y-54287500D03*
D23*
X60462500Y-40550000D03*
X60462500Y-42450000D03*
X62337500Y-41500000D03*
D21*
X46000000Y-76975000D03*
X46000000Y-78800000D03*
D20*
X55900000Y-56112500D03*
X55900000Y-54287500D03*
D24*
X37562500Y-56100000D03*
X39637500Y-56100000D03*
D25*
X41637500Y-61300000D03*
X39562500Y-61300000D03*
D26*
X53470000Y-77985000D03*
X56010000Y-77985000D03*
X58550000Y-77985000D03*
X61090000Y-77985000D03*
X66170000Y-77985000D03*
X63630000Y-77985000D03*
X71250000Y-62015000D03*
X71250000Y-77985000D03*
X68710000Y-62015000D03*
X66170000Y-62015000D03*
X63630000Y-62015000D03*
X61090000Y-62015000D03*
X58550000Y-62015000D03*
X56010000Y-62015000D03*
X53470000Y-62015000D03*
X68710000Y-77985000D03*
M02*
