G04 #@! TF.GenerationSoftware,KiCad,Pcbnew,9.0.0*
G04 #@! TF.CreationDate,2025-03-14T10:33:54+00:00*
G04 #@! TF.ProjectId,paxtogeddon-pcb,70617874-6f67-4656-9464-6f6e2d706362,rev?*
G04 #@! TF.SameCoordinates,Original*
G04 #@! TF.FileFunction,Legend,Top*
G04 #@! TF.FilePolarity,Positive*
%FSLAX46Y46*%
G04 Gerber Fmt 4.6, Leading zero omitted, Abs format (unit mm)*
G04 Created by KiCad (PCBNEW 9.0.0) date 2025-03-14 10:33:54*
%MOMM*%
%LPD*%
G01*
G04 APERTURE LIST*
G04 Aperture macros list*
%AMRoundRect*
0 Rectangle with rounded corners*
0 $1 Rounding radius*
0 $2 $3 $4 $5 $6 $7 $8 $9 X,Y pos of 4 corners*
0 Add a 4 corners polygon primitive as box body*
4,1,4,$2,$3,$4,$5,$6,$7,$8,$9,$2,$3,0*
0 Add four circle primitives for the rounded corners*
1,1,$1+$1,$2,$3*
1,1,$1+$1,$4,$5*
1,1,$1+$1,$6,$7*
1,1,$1+$1,$8,$9*
0 Add four rect primitives between the rounded corners*
20,1,$1+$1,$2,$3,$4,$5,0*
20,1,$1+$1,$4,$5,$6,$7,0*
20,1,$1+$1,$6,$7,$8,$9,0*
20,1,$1+$1,$8,$9,$2,$3,0*%
G04 Aperture macros list end*
%ADD10C,0.150000*%
%ADD11C,0.120000*%
%ADD12C,0.127000*%
%ADD13C,0.200000*%
%ADD14R,3.000000X3.000000*%
%ADD15C,3.000000*%
%ADD16RoundRect,0.250000X0.350000X-0.850000X0.350000X0.850000X-0.350000X0.850000X-0.350000X-0.850000X0*%
%ADD17RoundRect,0.249997X2.650003X-2.950003X2.650003X2.950003X-2.650003X2.950003X-2.650003X-2.950003X0*%
%ADD18RoundRect,0.102000X-0.754000X-0.754000X0.754000X-0.754000X0.754000X0.754000X-0.754000X0.754000X0*%
%ADD19C,1.712000*%
%ADD20C,3.204000*%
%ADD21RoundRect,0.250000X-0.650000X1.500000X-0.650000X-1.500000X0.650000X-1.500000X0.650000X1.500000X0*%
%ADD22O,1.700000X1.700000*%
%ADD23R,1.700000X1.700000*%
%ADD24RoundRect,0.250000X0.450000X-0.262500X0.450000X0.262500X-0.450000X0.262500X-0.450000X-0.262500X0*%
%ADD25RoundRect,0.250000X-0.450000X0.262500X-0.450000X-0.262500X0.450000X-0.262500X0.450000X0.262500X0*%
%ADD26RoundRect,0.150000X0.587500X0.150000X-0.587500X0.150000X-0.587500X-0.150000X0.587500X-0.150000X0*%
%ADD27RoundRect,0.150000X-0.587500X-0.150000X0.587500X-0.150000X0.587500X0.150000X-0.587500X0.150000X0*%
%ADD28RoundRect,0.250000X-0.337500X-0.475000X0.337500X-0.475000X0.337500X0.475000X-0.337500X0.475000X0*%
%ADD29RoundRect,0.250000X0.337500X0.475000X-0.337500X0.475000X-0.337500X-0.475000X0.337500X-0.475000X0*%
%ADD30RoundRect,0.102000X-0.762000X1.512500X-0.762000X-1.512500X0.762000X-1.512500X0.762000X1.512500X0*%
G04 APERTURE END LIST*
D10*
X71766666Y-29854819D02*
X71766666Y-30569104D01*
X71766666Y-30569104D02*
X71719047Y-30711961D01*
X71719047Y-30711961D02*
X71623809Y-30807200D01*
X71623809Y-30807200D02*
X71480952Y-30854819D01*
X71480952Y-30854819D02*
X71385714Y-30854819D01*
X72195238Y-29950057D02*
X72242857Y-29902438D01*
X72242857Y-29902438D02*
X72338095Y-29854819D01*
X72338095Y-29854819D02*
X72576190Y-29854819D01*
X72576190Y-29854819D02*
X72671428Y-29902438D01*
X72671428Y-29902438D02*
X72719047Y-29950057D01*
X72719047Y-29950057D02*
X72766666Y-30045295D01*
X72766666Y-30045295D02*
X72766666Y-30140533D01*
X72766666Y-30140533D02*
X72719047Y-30283390D01*
X72719047Y-30283390D02*
X72147619Y-30854819D01*
X72147619Y-30854819D02*
X72766666Y-30854819D01*
X43866666Y-78754819D02*
X43866666Y-79469104D01*
X43866666Y-79469104D02*
X43819047Y-79611961D01*
X43819047Y-79611961D02*
X43723809Y-79707200D01*
X43723809Y-79707200D02*
X43580952Y-79754819D01*
X43580952Y-79754819D02*
X43485714Y-79754819D01*
X44866666Y-79754819D02*
X44295238Y-79754819D01*
X44580952Y-79754819D02*
X44580952Y-78754819D01*
X44580952Y-78754819D02*
X44485714Y-78897676D01*
X44485714Y-78897676D02*
X44390476Y-78992914D01*
X44390476Y-78992914D02*
X44295238Y-79040533D01*
X34627319Y-47821904D02*
X35436842Y-47821904D01*
X35436842Y-47821904D02*
X35532080Y-47774285D01*
X35532080Y-47774285D02*
X35579700Y-47726666D01*
X35579700Y-47726666D02*
X35627319Y-47631428D01*
X35627319Y-47631428D02*
X35627319Y-47440952D01*
X35627319Y-47440952D02*
X35579700Y-47345714D01*
X35579700Y-47345714D02*
X35532080Y-47298095D01*
X35532080Y-47298095D02*
X35436842Y-47250476D01*
X35436842Y-47250476D02*
X34627319Y-47250476D01*
X35627319Y-46250476D02*
X35627319Y-46821904D01*
X35627319Y-46536190D02*
X34627319Y-46536190D01*
X34627319Y-46536190D02*
X34770176Y-46631428D01*
X34770176Y-46631428D02*
X34865414Y-46726666D01*
X34865414Y-46726666D02*
X34913033Y-46821904D01*
X51408095Y-33254819D02*
X51408095Y-34064342D01*
X51408095Y-34064342D02*
X51455714Y-34159580D01*
X51455714Y-34159580D02*
X51503333Y-34207200D01*
X51503333Y-34207200D02*
X51598571Y-34254819D01*
X51598571Y-34254819D02*
X51789047Y-34254819D01*
X51789047Y-34254819D02*
X51884285Y-34207200D01*
X51884285Y-34207200D02*
X51931904Y-34159580D01*
X51931904Y-34159580D02*
X51979523Y-34064342D01*
X51979523Y-34064342D02*
X51979523Y-33254819D01*
X52360476Y-33254819D02*
X52979523Y-33254819D01*
X52979523Y-33254819D02*
X52646190Y-33635771D01*
X52646190Y-33635771D02*
X52789047Y-33635771D01*
X52789047Y-33635771D02*
X52884285Y-33683390D01*
X52884285Y-33683390D02*
X52931904Y-33731009D01*
X52931904Y-33731009D02*
X52979523Y-33826247D01*
X52979523Y-33826247D02*
X52979523Y-34064342D01*
X52979523Y-34064342D02*
X52931904Y-34159580D01*
X52931904Y-34159580D02*
X52884285Y-34207200D01*
X52884285Y-34207200D02*
X52789047Y-34254819D01*
X52789047Y-34254819D02*
X52503333Y-34254819D01*
X52503333Y-34254819D02*
X52408095Y-34207200D01*
X52408095Y-34207200D02*
X52360476Y-34159580D01*
X43584819Y-66428333D02*
X44299104Y-66428333D01*
X44299104Y-66428333D02*
X44441961Y-66475952D01*
X44441961Y-66475952D02*
X44537200Y-66571190D01*
X44537200Y-66571190D02*
X44584819Y-66714047D01*
X44584819Y-66714047D02*
X44584819Y-66809285D01*
X44584819Y-65952142D02*
X43584819Y-65952142D01*
X43584819Y-65952142D02*
X43584819Y-65571190D01*
X43584819Y-65571190D02*
X43632438Y-65475952D01*
X43632438Y-65475952D02*
X43680057Y-65428333D01*
X43680057Y-65428333D02*
X43775295Y-65380714D01*
X43775295Y-65380714D02*
X43918152Y-65380714D01*
X43918152Y-65380714D02*
X44013390Y-65428333D01*
X44013390Y-65428333D02*
X44061009Y-65475952D01*
X44061009Y-65475952D02*
X44108628Y-65571190D01*
X44108628Y-65571190D02*
X44108628Y-65952142D01*
X44584819Y-64428333D02*
X44584819Y-64999761D01*
X44584819Y-64714047D02*
X43584819Y-64714047D01*
X43584819Y-64714047D02*
X43727676Y-64809285D01*
X43727676Y-64809285D02*
X43822914Y-64904523D01*
X43822914Y-64904523D02*
X43870533Y-64999761D01*
X67804819Y-46566666D02*
X67328628Y-46899999D01*
X67804819Y-47138094D02*
X66804819Y-47138094D01*
X66804819Y-47138094D02*
X66804819Y-46757142D01*
X66804819Y-46757142D02*
X66852438Y-46661904D01*
X66852438Y-46661904D02*
X66900057Y-46614285D01*
X66900057Y-46614285D02*
X66995295Y-46566666D01*
X66995295Y-46566666D02*
X67138152Y-46566666D01*
X67138152Y-46566666D02*
X67233390Y-46614285D01*
X67233390Y-46614285D02*
X67281009Y-46661904D01*
X67281009Y-46661904D02*
X67328628Y-46757142D01*
X67328628Y-46757142D02*
X67328628Y-47138094D01*
X66804819Y-45709523D02*
X66804819Y-45899999D01*
X66804819Y-45899999D02*
X66852438Y-45995237D01*
X66852438Y-45995237D02*
X66900057Y-46042856D01*
X66900057Y-46042856D02*
X67042914Y-46138094D01*
X67042914Y-46138094D02*
X67233390Y-46185713D01*
X67233390Y-46185713D02*
X67614342Y-46185713D01*
X67614342Y-46185713D02*
X67709580Y-46138094D01*
X67709580Y-46138094D02*
X67757200Y-46090475D01*
X67757200Y-46090475D02*
X67804819Y-45995237D01*
X67804819Y-45995237D02*
X67804819Y-45804761D01*
X67804819Y-45804761D02*
X67757200Y-45709523D01*
X67757200Y-45709523D02*
X67709580Y-45661904D01*
X67709580Y-45661904D02*
X67614342Y-45614285D01*
X67614342Y-45614285D02*
X67376247Y-45614285D01*
X67376247Y-45614285D02*
X67281009Y-45661904D01*
X67281009Y-45661904D02*
X67233390Y-45709523D01*
X67233390Y-45709523D02*
X67185771Y-45804761D01*
X67185771Y-45804761D02*
X67185771Y-45995237D01*
X67185771Y-45995237D02*
X67233390Y-46090475D01*
X67233390Y-46090475D02*
X67281009Y-46138094D01*
X67281009Y-46138094D02*
X67376247Y-46185713D01*
X64204819Y-46566666D02*
X63728628Y-46899999D01*
X64204819Y-47138094D02*
X63204819Y-47138094D01*
X63204819Y-47138094D02*
X63204819Y-46757142D01*
X63204819Y-46757142D02*
X63252438Y-46661904D01*
X63252438Y-46661904D02*
X63300057Y-46614285D01*
X63300057Y-46614285D02*
X63395295Y-46566666D01*
X63395295Y-46566666D02*
X63538152Y-46566666D01*
X63538152Y-46566666D02*
X63633390Y-46614285D01*
X63633390Y-46614285D02*
X63681009Y-46661904D01*
X63681009Y-46661904D02*
X63728628Y-46757142D01*
X63728628Y-46757142D02*
X63728628Y-47138094D01*
X63204819Y-45661904D02*
X63204819Y-46138094D01*
X63204819Y-46138094D02*
X63681009Y-46185713D01*
X63681009Y-46185713D02*
X63633390Y-46138094D01*
X63633390Y-46138094D02*
X63585771Y-46042856D01*
X63585771Y-46042856D02*
X63585771Y-45804761D01*
X63585771Y-45804761D02*
X63633390Y-45709523D01*
X63633390Y-45709523D02*
X63681009Y-45661904D01*
X63681009Y-45661904D02*
X63776247Y-45614285D01*
X63776247Y-45614285D02*
X64014342Y-45614285D01*
X64014342Y-45614285D02*
X64109580Y-45661904D01*
X64109580Y-45661904D02*
X64157200Y-45709523D01*
X64157200Y-45709523D02*
X64204819Y-45804761D01*
X64204819Y-45804761D02*
X64204819Y-46042856D01*
X64204819Y-46042856D02*
X64157200Y-46138094D01*
X64157200Y-46138094D02*
X64109580Y-46185713D01*
X60904819Y-46566666D02*
X60428628Y-46899999D01*
X60904819Y-47138094D02*
X59904819Y-47138094D01*
X59904819Y-47138094D02*
X59904819Y-46757142D01*
X59904819Y-46757142D02*
X59952438Y-46661904D01*
X59952438Y-46661904D02*
X60000057Y-46614285D01*
X60000057Y-46614285D02*
X60095295Y-46566666D01*
X60095295Y-46566666D02*
X60238152Y-46566666D01*
X60238152Y-46566666D02*
X60333390Y-46614285D01*
X60333390Y-46614285D02*
X60381009Y-46661904D01*
X60381009Y-46661904D02*
X60428628Y-46757142D01*
X60428628Y-46757142D02*
X60428628Y-47138094D01*
X60238152Y-45709523D02*
X60904819Y-45709523D01*
X59857200Y-45947618D02*
X60571485Y-46185713D01*
X60571485Y-46185713D02*
X60571485Y-45566666D01*
X58604819Y-55366666D02*
X58128628Y-55699999D01*
X58604819Y-55938094D02*
X57604819Y-55938094D01*
X57604819Y-55938094D02*
X57604819Y-55557142D01*
X57604819Y-55557142D02*
X57652438Y-55461904D01*
X57652438Y-55461904D02*
X57700057Y-55414285D01*
X57700057Y-55414285D02*
X57795295Y-55366666D01*
X57795295Y-55366666D02*
X57938152Y-55366666D01*
X57938152Y-55366666D02*
X58033390Y-55414285D01*
X58033390Y-55414285D02*
X58081009Y-55461904D01*
X58081009Y-55461904D02*
X58128628Y-55557142D01*
X58128628Y-55557142D02*
X58128628Y-55938094D01*
X57604819Y-55033332D02*
X57604819Y-54414285D01*
X57604819Y-54414285D02*
X57985771Y-54747618D01*
X57985771Y-54747618D02*
X57985771Y-54604761D01*
X57985771Y-54604761D02*
X58033390Y-54509523D01*
X58033390Y-54509523D02*
X58081009Y-54461904D01*
X58081009Y-54461904D02*
X58176247Y-54414285D01*
X58176247Y-54414285D02*
X58414342Y-54414285D01*
X58414342Y-54414285D02*
X58509580Y-54461904D01*
X58509580Y-54461904D02*
X58557200Y-54509523D01*
X58557200Y-54509523D02*
X58604819Y-54604761D01*
X58604819Y-54604761D02*
X58604819Y-54890475D01*
X58604819Y-54890475D02*
X58557200Y-54985713D01*
X58557200Y-54985713D02*
X58509580Y-55033332D01*
X37424819Y-35938333D02*
X38139104Y-35938333D01*
X38139104Y-35938333D02*
X38281961Y-35985952D01*
X38281961Y-35985952D02*
X38377200Y-36081190D01*
X38377200Y-36081190D02*
X38424819Y-36224047D01*
X38424819Y-36224047D02*
X38424819Y-36319285D01*
X38424819Y-35462142D02*
X37424819Y-35462142D01*
X37424819Y-35462142D02*
X37424819Y-35081190D01*
X37424819Y-35081190D02*
X37472438Y-34985952D01*
X37472438Y-34985952D02*
X37520057Y-34938333D01*
X37520057Y-34938333D02*
X37615295Y-34890714D01*
X37615295Y-34890714D02*
X37758152Y-34890714D01*
X37758152Y-34890714D02*
X37853390Y-34938333D01*
X37853390Y-34938333D02*
X37901009Y-34985952D01*
X37901009Y-34985952D02*
X37948628Y-35081190D01*
X37948628Y-35081190D02*
X37948628Y-35462142D01*
X37520057Y-34509761D02*
X37472438Y-34462142D01*
X37472438Y-34462142D02*
X37424819Y-34366904D01*
X37424819Y-34366904D02*
X37424819Y-34128809D01*
X37424819Y-34128809D02*
X37472438Y-34033571D01*
X37472438Y-34033571D02*
X37520057Y-33985952D01*
X37520057Y-33985952D02*
X37615295Y-33938333D01*
X37615295Y-33938333D02*
X37710533Y-33938333D01*
X37710533Y-33938333D02*
X37853390Y-33985952D01*
X37853390Y-33985952D02*
X38424819Y-34557380D01*
X38424819Y-34557380D02*
X38424819Y-33938333D01*
X49654819Y-75466666D02*
X49178628Y-75799999D01*
X49654819Y-76038094D02*
X48654819Y-76038094D01*
X48654819Y-76038094D02*
X48654819Y-75657142D01*
X48654819Y-75657142D02*
X48702438Y-75561904D01*
X48702438Y-75561904D02*
X48750057Y-75514285D01*
X48750057Y-75514285D02*
X48845295Y-75466666D01*
X48845295Y-75466666D02*
X48988152Y-75466666D01*
X48988152Y-75466666D02*
X49083390Y-75514285D01*
X49083390Y-75514285D02*
X49131009Y-75561904D01*
X49131009Y-75561904D02*
X49178628Y-75657142D01*
X49178628Y-75657142D02*
X49178628Y-76038094D01*
X48750057Y-75085713D02*
X48702438Y-75038094D01*
X48702438Y-75038094D02*
X48654819Y-74942856D01*
X48654819Y-74942856D02*
X48654819Y-74704761D01*
X48654819Y-74704761D02*
X48702438Y-74609523D01*
X48702438Y-74609523D02*
X48750057Y-74561904D01*
X48750057Y-74561904D02*
X48845295Y-74514285D01*
X48845295Y-74514285D02*
X48940533Y-74514285D01*
X48940533Y-74514285D02*
X49083390Y-74561904D01*
X49083390Y-74561904D02*
X49654819Y-75133332D01*
X49654819Y-75133332D02*
X49654819Y-74514285D01*
X54904761Y-53250057D02*
X54809523Y-53202438D01*
X54809523Y-53202438D02*
X54714285Y-53107200D01*
X54714285Y-53107200D02*
X54571428Y-52964342D01*
X54571428Y-52964342D02*
X54476190Y-52916723D01*
X54476190Y-52916723D02*
X54380952Y-52916723D01*
X54428571Y-53154819D02*
X54333333Y-53107200D01*
X54333333Y-53107200D02*
X54238095Y-53011961D01*
X54238095Y-53011961D02*
X54190476Y-52821485D01*
X54190476Y-52821485D02*
X54190476Y-52488152D01*
X54190476Y-52488152D02*
X54238095Y-52297676D01*
X54238095Y-52297676D02*
X54333333Y-52202438D01*
X54333333Y-52202438D02*
X54428571Y-52154819D01*
X54428571Y-52154819D02*
X54619047Y-52154819D01*
X54619047Y-52154819D02*
X54714285Y-52202438D01*
X54714285Y-52202438D02*
X54809523Y-52297676D01*
X54809523Y-52297676D02*
X54857142Y-52488152D01*
X54857142Y-52488152D02*
X54857142Y-52821485D01*
X54857142Y-52821485D02*
X54809523Y-53011961D01*
X54809523Y-53011961D02*
X54714285Y-53107200D01*
X54714285Y-53107200D02*
X54619047Y-53154819D01*
X54619047Y-53154819D02*
X54428571Y-53154819D01*
X55761904Y-52154819D02*
X55285714Y-52154819D01*
X55285714Y-52154819D02*
X55238095Y-52631009D01*
X55238095Y-52631009D02*
X55285714Y-52583390D01*
X55285714Y-52583390D02*
X55380952Y-52535771D01*
X55380952Y-52535771D02*
X55619047Y-52535771D01*
X55619047Y-52535771D02*
X55714285Y-52583390D01*
X55714285Y-52583390D02*
X55761904Y-52631009D01*
X55761904Y-52631009D02*
X55809523Y-52726247D01*
X55809523Y-52726247D02*
X55809523Y-52964342D01*
X55809523Y-52964342D02*
X55761904Y-53059580D01*
X55761904Y-53059580D02*
X55714285Y-53107200D01*
X55714285Y-53107200D02*
X55619047Y-53154819D01*
X55619047Y-53154819D02*
X55380952Y-53154819D01*
X55380952Y-53154819D02*
X55285714Y-53107200D01*
X55285714Y-53107200D02*
X55238095Y-53059580D01*
X51804761Y-39650057D02*
X51709523Y-39602438D01*
X51709523Y-39602438D02*
X51614285Y-39507200D01*
X51614285Y-39507200D02*
X51471428Y-39364342D01*
X51471428Y-39364342D02*
X51376190Y-39316723D01*
X51376190Y-39316723D02*
X51280952Y-39316723D01*
X51328571Y-39554819D02*
X51233333Y-39507200D01*
X51233333Y-39507200D02*
X51138095Y-39411961D01*
X51138095Y-39411961D02*
X51090476Y-39221485D01*
X51090476Y-39221485D02*
X51090476Y-38888152D01*
X51090476Y-38888152D02*
X51138095Y-38697676D01*
X51138095Y-38697676D02*
X51233333Y-38602438D01*
X51233333Y-38602438D02*
X51328571Y-38554819D01*
X51328571Y-38554819D02*
X51519047Y-38554819D01*
X51519047Y-38554819D02*
X51614285Y-38602438D01*
X51614285Y-38602438D02*
X51709523Y-38697676D01*
X51709523Y-38697676D02*
X51757142Y-38888152D01*
X51757142Y-38888152D02*
X51757142Y-39221485D01*
X51757142Y-39221485D02*
X51709523Y-39411961D01*
X51709523Y-39411961D02*
X51614285Y-39507200D01*
X51614285Y-39507200D02*
X51519047Y-39554819D01*
X51519047Y-39554819D02*
X51328571Y-39554819D01*
X52709523Y-39554819D02*
X52138095Y-39554819D01*
X52423809Y-39554819D02*
X52423809Y-38554819D01*
X52423809Y-38554819D02*
X52328571Y-38697676D01*
X52328571Y-38697676D02*
X52233333Y-38792914D01*
X52233333Y-38792914D02*
X52138095Y-38840533D01*
X66204761Y-39650057D02*
X66109523Y-39602438D01*
X66109523Y-39602438D02*
X66014285Y-39507200D01*
X66014285Y-39507200D02*
X65871428Y-39364342D01*
X65871428Y-39364342D02*
X65776190Y-39316723D01*
X65776190Y-39316723D02*
X65680952Y-39316723D01*
X65728571Y-39554819D02*
X65633333Y-39507200D01*
X65633333Y-39507200D02*
X65538095Y-39411961D01*
X65538095Y-39411961D02*
X65490476Y-39221485D01*
X65490476Y-39221485D02*
X65490476Y-38888152D01*
X65490476Y-38888152D02*
X65538095Y-38697676D01*
X65538095Y-38697676D02*
X65633333Y-38602438D01*
X65633333Y-38602438D02*
X65728571Y-38554819D01*
X65728571Y-38554819D02*
X65919047Y-38554819D01*
X65919047Y-38554819D02*
X66014285Y-38602438D01*
X66014285Y-38602438D02*
X66109523Y-38697676D01*
X66109523Y-38697676D02*
X66157142Y-38888152D01*
X66157142Y-38888152D02*
X66157142Y-39221485D01*
X66157142Y-39221485D02*
X66109523Y-39411961D01*
X66109523Y-39411961D02*
X66014285Y-39507200D01*
X66014285Y-39507200D02*
X65919047Y-39554819D01*
X65919047Y-39554819D02*
X65728571Y-39554819D01*
X67014285Y-38888152D02*
X67014285Y-39554819D01*
X66776190Y-38507200D02*
X66538095Y-39221485D01*
X66538095Y-39221485D02*
X67157142Y-39221485D01*
X49304761Y-53250057D02*
X49209523Y-53202438D01*
X49209523Y-53202438D02*
X49114285Y-53107200D01*
X49114285Y-53107200D02*
X48971428Y-52964342D01*
X48971428Y-52964342D02*
X48876190Y-52916723D01*
X48876190Y-52916723D02*
X48780952Y-52916723D01*
X48828571Y-53154819D02*
X48733333Y-53107200D01*
X48733333Y-53107200D02*
X48638095Y-53011961D01*
X48638095Y-53011961D02*
X48590476Y-52821485D01*
X48590476Y-52821485D02*
X48590476Y-52488152D01*
X48590476Y-52488152D02*
X48638095Y-52297676D01*
X48638095Y-52297676D02*
X48733333Y-52202438D01*
X48733333Y-52202438D02*
X48828571Y-52154819D01*
X48828571Y-52154819D02*
X49019047Y-52154819D01*
X49019047Y-52154819D02*
X49114285Y-52202438D01*
X49114285Y-52202438D02*
X49209523Y-52297676D01*
X49209523Y-52297676D02*
X49257142Y-52488152D01*
X49257142Y-52488152D02*
X49257142Y-52821485D01*
X49257142Y-52821485D02*
X49209523Y-53011961D01*
X49209523Y-53011961D02*
X49114285Y-53107200D01*
X49114285Y-53107200D02*
X49019047Y-53154819D01*
X49019047Y-53154819D02*
X48828571Y-53154819D01*
X50114285Y-52154819D02*
X49923809Y-52154819D01*
X49923809Y-52154819D02*
X49828571Y-52202438D01*
X49828571Y-52202438D02*
X49780952Y-52250057D01*
X49780952Y-52250057D02*
X49685714Y-52392914D01*
X49685714Y-52392914D02*
X49638095Y-52583390D01*
X49638095Y-52583390D02*
X49638095Y-52964342D01*
X49638095Y-52964342D02*
X49685714Y-53059580D01*
X49685714Y-53059580D02*
X49733333Y-53107200D01*
X49733333Y-53107200D02*
X49828571Y-53154819D01*
X49828571Y-53154819D02*
X50019047Y-53154819D01*
X50019047Y-53154819D02*
X50114285Y-53107200D01*
X50114285Y-53107200D02*
X50161904Y-53059580D01*
X50161904Y-53059580D02*
X50209523Y-52964342D01*
X50209523Y-52964342D02*
X50209523Y-52726247D01*
X50209523Y-52726247D02*
X50161904Y-52631009D01*
X50161904Y-52631009D02*
X50114285Y-52583390D01*
X50114285Y-52583390D02*
X50019047Y-52535771D01*
X50019047Y-52535771D02*
X49828571Y-52535771D01*
X49828571Y-52535771D02*
X49733333Y-52583390D01*
X49733333Y-52583390D02*
X49685714Y-52631009D01*
X49685714Y-52631009D02*
X49638095Y-52726247D01*
X32624819Y-35938333D02*
X33339104Y-35938333D01*
X33339104Y-35938333D02*
X33481961Y-35985952D01*
X33481961Y-35985952D02*
X33577200Y-36081190D01*
X33577200Y-36081190D02*
X33624819Y-36224047D01*
X33624819Y-36224047D02*
X33624819Y-36319285D01*
X33624819Y-35462142D02*
X32624819Y-35462142D01*
X32624819Y-35462142D02*
X32624819Y-35081190D01*
X32624819Y-35081190D02*
X32672438Y-34985952D01*
X32672438Y-34985952D02*
X32720057Y-34938333D01*
X32720057Y-34938333D02*
X32815295Y-34890714D01*
X32815295Y-34890714D02*
X32958152Y-34890714D01*
X32958152Y-34890714D02*
X33053390Y-34938333D01*
X33053390Y-34938333D02*
X33101009Y-34985952D01*
X33101009Y-34985952D02*
X33148628Y-35081190D01*
X33148628Y-35081190D02*
X33148628Y-35462142D01*
X32624819Y-34557380D02*
X32624819Y-33938333D01*
X32624819Y-33938333D02*
X33005771Y-34271666D01*
X33005771Y-34271666D02*
X33005771Y-34128809D01*
X33005771Y-34128809D02*
X33053390Y-34033571D01*
X33053390Y-34033571D02*
X33101009Y-33985952D01*
X33101009Y-33985952D02*
X33196247Y-33938333D01*
X33196247Y-33938333D02*
X33434342Y-33938333D01*
X33434342Y-33938333D02*
X33529580Y-33985952D01*
X33529580Y-33985952D02*
X33577200Y-34033571D01*
X33577200Y-34033571D02*
X33624819Y-34128809D01*
X33624819Y-34128809D02*
X33624819Y-34414523D01*
X33624819Y-34414523D02*
X33577200Y-34509761D01*
X33577200Y-34509761D02*
X33529580Y-34557380D01*
X56604761Y-39650057D02*
X56509523Y-39602438D01*
X56509523Y-39602438D02*
X56414285Y-39507200D01*
X56414285Y-39507200D02*
X56271428Y-39364342D01*
X56271428Y-39364342D02*
X56176190Y-39316723D01*
X56176190Y-39316723D02*
X56080952Y-39316723D01*
X56128571Y-39554819D02*
X56033333Y-39507200D01*
X56033333Y-39507200D02*
X55938095Y-39411961D01*
X55938095Y-39411961D02*
X55890476Y-39221485D01*
X55890476Y-39221485D02*
X55890476Y-38888152D01*
X55890476Y-38888152D02*
X55938095Y-38697676D01*
X55938095Y-38697676D02*
X56033333Y-38602438D01*
X56033333Y-38602438D02*
X56128571Y-38554819D01*
X56128571Y-38554819D02*
X56319047Y-38554819D01*
X56319047Y-38554819D02*
X56414285Y-38602438D01*
X56414285Y-38602438D02*
X56509523Y-38697676D01*
X56509523Y-38697676D02*
X56557142Y-38888152D01*
X56557142Y-38888152D02*
X56557142Y-39221485D01*
X56557142Y-39221485D02*
X56509523Y-39411961D01*
X56509523Y-39411961D02*
X56414285Y-39507200D01*
X56414285Y-39507200D02*
X56319047Y-39554819D01*
X56319047Y-39554819D02*
X56128571Y-39554819D01*
X56938095Y-38650057D02*
X56985714Y-38602438D01*
X56985714Y-38602438D02*
X57080952Y-38554819D01*
X57080952Y-38554819D02*
X57319047Y-38554819D01*
X57319047Y-38554819D02*
X57414285Y-38602438D01*
X57414285Y-38602438D02*
X57461904Y-38650057D01*
X57461904Y-38650057D02*
X57509523Y-38745295D01*
X57509523Y-38745295D02*
X57509523Y-38840533D01*
X57509523Y-38840533D02*
X57461904Y-38983390D01*
X57461904Y-38983390D02*
X56890476Y-39554819D01*
X56890476Y-39554819D02*
X57509523Y-39554819D01*
X51404819Y-55366666D02*
X50928628Y-55699999D01*
X51404819Y-55938094D02*
X50404819Y-55938094D01*
X50404819Y-55938094D02*
X50404819Y-55557142D01*
X50404819Y-55557142D02*
X50452438Y-55461904D01*
X50452438Y-55461904D02*
X50500057Y-55414285D01*
X50500057Y-55414285D02*
X50595295Y-55366666D01*
X50595295Y-55366666D02*
X50738152Y-55366666D01*
X50738152Y-55366666D02*
X50833390Y-55414285D01*
X50833390Y-55414285D02*
X50881009Y-55461904D01*
X50881009Y-55461904D02*
X50928628Y-55557142D01*
X50928628Y-55557142D02*
X50928628Y-55938094D01*
X50833390Y-54795237D02*
X50785771Y-54890475D01*
X50785771Y-54890475D02*
X50738152Y-54938094D01*
X50738152Y-54938094D02*
X50642914Y-54985713D01*
X50642914Y-54985713D02*
X50595295Y-54985713D01*
X50595295Y-54985713D02*
X50500057Y-54938094D01*
X50500057Y-54938094D02*
X50452438Y-54890475D01*
X50452438Y-54890475D02*
X50404819Y-54795237D01*
X50404819Y-54795237D02*
X50404819Y-54604761D01*
X50404819Y-54604761D02*
X50452438Y-54509523D01*
X50452438Y-54509523D02*
X50500057Y-54461904D01*
X50500057Y-54461904D02*
X50595295Y-54414285D01*
X50595295Y-54414285D02*
X50642914Y-54414285D01*
X50642914Y-54414285D02*
X50738152Y-54461904D01*
X50738152Y-54461904D02*
X50785771Y-54509523D01*
X50785771Y-54509523D02*
X50833390Y-54604761D01*
X50833390Y-54604761D02*
X50833390Y-54795237D01*
X50833390Y-54795237D02*
X50881009Y-54890475D01*
X50881009Y-54890475D02*
X50928628Y-54938094D01*
X50928628Y-54938094D02*
X51023866Y-54985713D01*
X51023866Y-54985713D02*
X51214342Y-54985713D01*
X51214342Y-54985713D02*
X51309580Y-54938094D01*
X51309580Y-54938094D02*
X51357200Y-54890475D01*
X51357200Y-54890475D02*
X51404819Y-54795237D01*
X51404819Y-54795237D02*
X51404819Y-54604761D01*
X51404819Y-54604761D02*
X51357200Y-54509523D01*
X51357200Y-54509523D02*
X51309580Y-54461904D01*
X51309580Y-54461904D02*
X51214342Y-54414285D01*
X51214342Y-54414285D02*
X51023866Y-54414285D01*
X51023866Y-54414285D02*
X50928628Y-54461904D01*
X50928628Y-54461904D02*
X50881009Y-54509523D01*
X50881009Y-54509523D02*
X50833390Y-54604761D01*
X61304761Y-39650057D02*
X61209523Y-39602438D01*
X61209523Y-39602438D02*
X61114285Y-39507200D01*
X61114285Y-39507200D02*
X60971428Y-39364342D01*
X60971428Y-39364342D02*
X60876190Y-39316723D01*
X60876190Y-39316723D02*
X60780952Y-39316723D01*
X60828571Y-39554819D02*
X60733333Y-39507200D01*
X60733333Y-39507200D02*
X60638095Y-39411961D01*
X60638095Y-39411961D02*
X60590476Y-39221485D01*
X60590476Y-39221485D02*
X60590476Y-38888152D01*
X60590476Y-38888152D02*
X60638095Y-38697676D01*
X60638095Y-38697676D02*
X60733333Y-38602438D01*
X60733333Y-38602438D02*
X60828571Y-38554819D01*
X60828571Y-38554819D02*
X61019047Y-38554819D01*
X61019047Y-38554819D02*
X61114285Y-38602438D01*
X61114285Y-38602438D02*
X61209523Y-38697676D01*
X61209523Y-38697676D02*
X61257142Y-38888152D01*
X61257142Y-38888152D02*
X61257142Y-39221485D01*
X61257142Y-39221485D02*
X61209523Y-39411961D01*
X61209523Y-39411961D02*
X61114285Y-39507200D01*
X61114285Y-39507200D02*
X61019047Y-39554819D01*
X61019047Y-39554819D02*
X60828571Y-39554819D01*
X61590476Y-38554819D02*
X62209523Y-38554819D01*
X62209523Y-38554819D02*
X61876190Y-38935771D01*
X61876190Y-38935771D02*
X62019047Y-38935771D01*
X62019047Y-38935771D02*
X62114285Y-38983390D01*
X62114285Y-38983390D02*
X62161904Y-39031009D01*
X62161904Y-39031009D02*
X62209523Y-39126247D01*
X62209523Y-39126247D02*
X62209523Y-39364342D01*
X62209523Y-39364342D02*
X62161904Y-39459580D01*
X62161904Y-39459580D02*
X62114285Y-39507200D01*
X62114285Y-39507200D02*
X62019047Y-39554819D01*
X62019047Y-39554819D02*
X61733333Y-39554819D01*
X61733333Y-39554819D02*
X61638095Y-39507200D01*
X61638095Y-39507200D02*
X61590476Y-39459580D01*
X44654819Y-77366666D02*
X44178628Y-77699999D01*
X44654819Y-77938094D02*
X43654819Y-77938094D01*
X43654819Y-77938094D02*
X43654819Y-77557142D01*
X43654819Y-77557142D02*
X43702438Y-77461904D01*
X43702438Y-77461904D02*
X43750057Y-77414285D01*
X43750057Y-77414285D02*
X43845295Y-77366666D01*
X43845295Y-77366666D02*
X43988152Y-77366666D01*
X43988152Y-77366666D02*
X44083390Y-77414285D01*
X44083390Y-77414285D02*
X44131009Y-77461904D01*
X44131009Y-77461904D02*
X44178628Y-77557142D01*
X44178628Y-77557142D02*
X44178628Y-77938094D01*
X44654819Y-76414285D02*
X44654819Y-76985713D01*
X44654819Y-76699999D02*
X43654819Y-76699999D01*
X43654819Y-76699999D02*
X43797676Y-76795237D01*
X43797676Y-76795237D02*
X43892914Y-76890475D01*
X43892914Y-76890475D02*
X43940533Y-76985713D01*
X54704819Y-55366666D02*
X54228628Y-55699999D01*
X54704819Y-55938094D02*
X53704819Y-55938094D01*
X53704819Y-55938094D02*
X53704819Y-55557142D01*
X53704819Y-55557142D02*
X53752438Y-55461904D01*
X53752438Y-55461904D02*
X53800057Y-55414285D01*
X53800057Y-55414285D02*
X53895295Y-55366666D01*
X53895295Y-55366666D02*
X54038152Y-55366666D01*
X54038152Y-55366666D02*
X54133390Y-55414285D01*
X54133390Y-55414285D02*
X54181009Y-55461904D01*
X54181009Y-55461904D02*
X54228628Y-55557142D01*
X54228628Y-55557142D02*
X54228628Y-55938094D01*
X53704819Y-55033332D02*
X53704819Y-54366666D01*
X53704819Y-54366666D02*
X54704819Y-54795237D01*
X35533333Y-56459580D02*
X35485714Y-56507200D01*
X35485714Y-56507200D02*
X35342857Y-56554819D01*
X35342857Y-56554819D02*
X35247619Y-56554819D01*
X35247619Y-56554819D02*
X35104762Y-56507200D01*
X35104762Y-56507200D02*
X35009524Y-56411961D01*
X35009524Y-56411961D02*
X34961905Y-56316723D01*
X34961905Y-56316723D02*
X34914286Y-56126247D01*
X34914286Y-56126247D02*
X34914286Y-55983390D01*
X34914286Y-55983390D02*
X34961905Y-55792914D01*
X34961905Y-55792914D02*
X35009524Y-55697676D01*
X35009524Y-55697676D02*
X35104762Y-55602438D01*
X35104762Y-55602438D02*
X35247619Y-55554819D01*
X35247619Y-55554819D02*
X35342857Y-55554819D01*
X35342857Y-55554819D02*
X35485714Y-55602438D01*
X35485714Y-55602438D02*
X35533333Y-55650057D01*
X36485714Y-56554819D02*
X35914286Y-56554819D01*
X36200000Y-56554819D02*
X36200000Y-55554819D01*
X36200000Y-55554819D02*
X36104762Y-55697676D01*
X36104762Y-55697676D02*
X36009524Y-55792914D01*
X36009524Y-55792914D02*
X35914286Y-55840533D01*
X38233333Y-63459580D02*
X38185714Y-63507200D01*
X38185714Y-63507200D02*
X38042857Y-63554819D01*
X38042857Y-63554819D02*
X37947619Y-63554819D01*
X37947619Y-63554819D02*
X37804762Y-63507200D01*
X37804762Y-63507200D02*
X37709524Y-63411961D01*
X37709524Y-63411961D02*
X37661905Y-63316723D01*
X37661905Y-63316723D02*
X37614286Y-63126247D01*
X37614286Y-63126247D02*
X37614286Y-62983390D01*
X37614286Y-62983390D02*
X37661905Y-62792914D01*
X37661905Y-62792914D02*
X37709524Y-62697676D01*
X37709524Y-62697676D02*
X37804762Y-62602438D01*
X37804762Y-62602438D02*
X37947619Y-62554819D01*
X37947619Y-62554819D02*
X38042857Y-62554819D01*
X38042857Y-62554819D02*
X38185714Y-62602438D01*
X38185714Y-62602438D02*
X38233333Y-62650057D01*
X38614286Y-62650057D02*
X38661905Y-62602438D01*
X38661905Y-62602438D02*
X38757143Y-62554819D01*
X38757143Y-62554819D02*
X38995238Y-62554819D01*
X38995238Y-62554819D02*
X39090476Y-62602438D01*
X39090476Y-62602438D02*
X39138095Y-62650057D01*
X39138095Y-62650057D02*
X39185714Y-62745295D01*
X39185714Y-62745295D02*
X39185714Y-62840533D01*
X39185714Y-62840533D02*
X39138095Y-62983390D01*
X39138095Y-62983390D02*
X38566667Y-63554819D01*
X38566667Y-63554819D02*
X39185714Y-63554819D01*
X73054819Y-64761904D02*
X73864342Y-64761904D01*
X73864342Y-64761904D02*
X73959580Y-64714285D01*
X73959580Y-64714285D02*
X74007200Y-64666666D01*
X74007200Y-64666666D02*
X74054819Y-64571428D01*
X74054819Y-64571428D02*
X74054819Y-64380952D01*
X74054819Y-64380952D02*
X74007200Y-64285714D01*
X74007200Y-64285714D02*
X73959580Y-64238095D01*
X73959580Y-64238095D02*
X73864342Y-64190476D01*
X73864342Y-64190476D02*
X73054819Y-64190476D01*
X73150057Y-63761904D02*
X73102438Y-63714285D01*
X73102438Y-63714285D02*
X73054819Y-63619047D01*
X73054819Y-63619047D02*
X73054819Y-63380952D01*
X73054819Y-63380952D02*
X73102438Y-63285714D01*
X73102438Y-63285714D02*
X73150057Y-63238095D01*
X73150057Y-63238095D02*
X73245295Y-63190476D01*
X73245295Y-63190476D02*
X73340533Y-63190476D01*
X73340533Y-63190476D02*
X73483390Y-63238095D01*
X73483390Y-63238095D02*
X74054819Y-63809523D01*
X74054819Y-63809523D02*
X74054819Y-63190476D01*
D11*
X73750000Y-31850000D02*
X70750000Y-31850000D01*
X73750000Y-28850000D02*
X73750000Y-31850000D01*
X73510000Y-31610000D02*
X73510000Y-22390000D01*
X73510000Y-31610000D02*
X33290000Y-31610000D01*
X73510000Y-22390000D02*
X33290000Y-22390000D01*
X33290000Y-31610000D02*
X33290000Y-22390000D01*
X32717500Y-70217500D02*
X35717500Y-70217500D01*
X32717500Y-73217500D02*
X32717500Y-70217500D01*
X32957500Y-70457500D02*
X32957500Y-79677500D01*
X32957500Y-70457500D02*
X43177500Y-70457500D01*
X32957500Y-79677500D02*
X43177500Y-79677500D01*
X43177500Y-70457500D02*
X43177500Y-79677500D01*
X36222500Y-50370000D02*
X36492500Y-50370000D01*
X43122500Y-50370000D02*
X42852500Y-50370000D01*
X36222500Y-43950000D02*
X36222500Y-50370000D01*
X43122500Y-43950000D02*
X43122500Y-50370000D01*
X36532500Y-52100000D02*
X36062500Y-52440000D01*
X36062500Y-51760000D01*
X36532500Y-52100000D01*
G36*
X36532500Y-52100000D02*
G01*
X36062500Y-52440000D01*
X36062500Y-51760000D01*
X36532500Y-52100000D01*
G37*
D12*
X45870000Y-32000000D02*
X73070000Y-32000000D01*
X45870000Y-59600000D02*
X45870000Y-32000000D01*
X52470000Y-57600000D02*
X52470000Y-59600000D01*
X52470000Y-59600000D02*
X45870000Y-59600000D01*
X66470000Y-57600000D02*
X52470000Y-57600000D01*
X66470000Y-59600000D02*
X66470000Y-57600000D01*
X73070000Y-32000000D02*
X73070000Y-59600000D01*
X73070000Y-59600000D02*
X66470000Y-59600000D01*
D13*
X54370000Y-32500000D02*
G75*
G02*
X54170000Y-32500000I-100000J0D01*
G01*
X54170000Y-32500000D02*
G75*
G02*
X54370000Y-32500000I100000J0D01*
G01*
D11*
X33750000Y-60090000D02*
X33750000Y-67100000D01*
X37050000Y-60090000D02*
X37050000Y-67100000D01*
X37050000Y-60090000D02*
X33750000Y-60090000D01*
X43130000Y-68195000D02*
X40470000Y-68195000D01*
X43130000Y-65595000D02*
X43130000Y-68195000D01*
X43130000Y-62995000D02*
X43130000Y-64325000D01*
X41800000Y-62995000D02*
X43130000Y-62995000D01*
X40530000Y-65595000D02*
X43130000Y-65595000D01*
X40530000Y-62995000D02*
X40530000Y-65595000D01*
X40530000Y-62995000D02*
X40470000Y-62995000D01*
X40470000Y-62995000D02*
X40470000Y-68195000D01*
X69735000Y-46627064D02*
X69735000Y-46172936D01*
X68265000Y-46627064D02*
X68265000Y-46172936D01*
X66135000Y-46627064D02*
X66135000Y-46172936D01*
X64665000Y-46627064D02*
X64665000Y-46172936D01*
X62835000Y-46627064D02*
X62835000Y-46172936D01*
X61365000Y-46627064D02*
X61365000Y-46172936D01*
X60535000Y-55427064D02*
X60535000Y-54972936D01*
X59065000Y-55427064D02*
X59065000Y-54972936D01*
X38970000Y-32505000D02*
X41630000Y-32505000D01*
X38970000Y-35105000D02*
X38970000Y-32505000D01*
X38970000Y-37705000D02*
X38970000Y-36375000D01*
X40300000Y-37705000D02*
X38970000Y-37705000D01*
X41570000Y-35105000D02*
X38970000Y-35105000D01*
X41570000Y-37705000D02*
X41570000Y-35105000D01*
X41570000Y-37705000D02*
X41630000Y-37705000D01*
X41630000Y-37705000D02*
X41630000Y-32505000D01*
X47465000Y-77672936D02*
X47465000Y-78127064D01*
X48935000Y-77672936D02*
X48935000Y-78127064D01*
X55000000Y-48740000D02*
X54350000Y-48740000D01*
X55000000Y-48740000D02*
X55650000Y-48740000D01*
X55000000Y-51860000D02*
X54350000Y-51860000D01*
X55000000Y-51860000D02*
X55650000Y-51860000D01*
X56402500Y-52140000D02*
X55922500Y-52140000D01*
X56162500Y-51810000D01*
X56402500Y-52140000D01*
G36*
X56402500Y-52140000D02*
G01*
X55922500Y-52140000D01*
X56162500Y-51810000D01*
X56402500Y-52140000D01*
G37*
X51900000Y-39940000D02*
X51250000Y-39940000D01*
X51900000Y-39940000D02*
X52550000Y-39940000D01*
X51900000Y-43060000D02*
X51250000Y-43060000D01*
X51900000Y-43060000D02*
X52550000Y-43060000D01*
X50737500Y-39990000D02*
X50497500Y-39660000D01*
X50977500Y-39660000D01*
X50737500Y-39990000D01*
G36*
X50737500Y-39990000D02*
G01*
X50497500Y-39660000D01*
X50977500Y-39660000D01*
X50737500Y-39990000D01*
G37*
X66300000Y-39940000D02*
X65650000Y-39940000D01*
X66300000Y-39940000D02*
X66950000Y-39940000D01*
X66300000Y-43060000D02*
X65650000Y-43060000D01*
X66300000Y-43060000D02*
X66950000Y-43060000D01*
X65137500Y-39990000D02*
X64897500Y-39660000D01*
X65377500Y-39660000D01*
X65137500Y-39990000D01*
G36*
X65137500Y-39990000D02*
G01*
X64897500Y-39660000D01*
X65377500Y-39660000D01*
X65137500Y-39990000D01*
G37*
X49400000Y-48740000D02*
X48750000Y-48740000D01*
X49400000Y-48740000D02*
X50050000Y-48740000D01*
X49400000Y-51860000D02*
X48750000Y-51860000D01*
X49400000Y-51860000D02*
X50050000Y-51860000D01*
X50802500Y-52140000D02*
X50322500Y-52140000D01*
X50562500Y-51810000D01*
X50802500Y-52140000D01*
G36*
X50802500Y-52140000D02*
G01*
X50322500Y-52140000D01*
X50562500Y-51810000D01*
X50802500Y-52140000D01*
G37*
X34170000Y-32505000D02*
X36830000Y-32505000D01*
X34170000Y-35105000D02*
X34170000Y-32505000D01*
X34170000Y-37705000D02*
X34170000Y-36375000D01*
X35500000Y-37705000D02*
X34170000Y-37705000D01*
X36770000Y-35105000D02*
X34170000Y-35105000D01*
X36770000Y-37705000D02*
X36770000Y-35105000D01*
X36770000Y-37705000D02*
X36830000Y-37705000D01*
X36830000Y-37705000D02*
X36830000Y-32505000D01*
X56700000Y-39940000D02*
X56050000Y-39940000D01*
X56700000Y-39940000D02*
X57350000Y-39940000D01*
X56700000Y-43060000D02*
X56050000Y-43060000D01*
X56700000Y-43060000D02*
X57350000Y-43060000D01*
X55537500Y-39990000D02*
X55297500Y-39660000D01*
X55777500Y-39660000D01*
X55537500Y-39990000D01*
G36*
X55537500Y-39990000D02*
G01*
X55297500Y-39660000D01*
X55777500Y-39660000D01*
X55537500Y-39990000D01*
G37*
X51865000Y-55427064D02*
X51865000Y-54972936D01*
X53335000Y-55427064D02*
X53335000Y-54972936D01*
X61400000Y-39940000D02*
X60750000Y-39940000D01*
X61400000Y-39940000D02*
X62050000Y-39940000D01*
X61400000Y-43060000D02*
X60750000Y-43060000D01*
X61400000Y-43060000D02*
X62050000Y-43060000D01*
X60237500Y-39990000D02*
X59997500Y-39660000D01*
X60477500Y-39660000D01*
X60237500Y-39990000D01*
G36*
X60237500Y-39990000D02*
G01*
X59997500Y-39660000D01*
X60477500Y-39660000D01*
X60237500Y-39990000D01*
G37*
X45265000Y-77660436D02*
X45265000Y-78114564D01*
X46735000Y-77660436D02*
X46735000Y-78114564D01*
X55165000Y-55427064D02*
X55165000Y-54972936D01*
X56635000Y-55427064D02*
X56635000Y-54972936D01*
X38338748Y-56835000D02*
X38861252Y-56835000D01*
X38338748Y-55365000D02*
X38861252Y-55365000D01*
X40861252Y-60565000D02*
X40338748Y-60565000D01*
X40861252Y-62035000D02*
X40338748Y-62035000D01*
D12*
X50000000Y-61000000D02*
X52350000Y-61000000D01*
X50000000Y-79000000D02*
X50000000Y-61000000D01*
X50000000Y-79000000D02*
X52350000Y-79000000D01*
X72400000Y-61000000D02*
X72700000Y-61000000D01*
X72400000Y-79000000D02*
X72700000Y-79000000D01*
X72700000Y-65500000D02*
X72700000Y-61000000D01*
X72700000Y-79000000D02*
X72700000Y-74500000D01*
X74000000Y-65500000D02*
X72700000Y-65500000D01*
X74000000Y-74500000D02*
X72700000Y-74500000D01*
X74000000Y-74500000D02*
X74000000Y-65500000D01*
%LPC*%
D14*
X70900000Y-26500000D03*
D15*
X65900000Y-26500000D03*
X60900000Y-26500000D03*
X55900000Y-26500000D03*
X50900000Y-26500000D03*
X45900000Y-26500000D03*
X40900000Y-26500000D03*
X35900000Y-26500000D03*
D14*
X35567500Y-75567500D03*
D15*
X40567500Y-75567500D03*
D16*
X37392500Y-52100000D03*
D17*
X39672500Y-45800000D03*
D16*
X41952500Y-52100000D03*
D18*
X55660000Y-33300000D03*
D19*
X58200000Y-33300000D03*
X60740000Y-33300000D03*
X63280000Y-33300000D03*
D20*
X47820000Y-33900000D03*
X71120000Y-33900000D03*
X71120000Y-57700000D03*
X47820000Y-57700000D03*
D21*
X35400000Y-67100000D03*
X35400000Y-62100000D03*
D22*
X41800000Y-66865000D03*
D23*
X41800000Y-64325000D03*
D24*
X69000000Y-45487500D03*
X69000000Y-47312500D03*
X65400000Y-45487500D03*
X65400000Y-47312500D03*
X62100000Y-45487500D03*
X62100000Y-47312500D03*
X59800000Y-54287500D03*
X59800000Y-56112500D03*
D23*
X40300000Y-36375000D03*
D22*
X40300000Y-33835000D03*
D25*
X48200000Y-76987500D03*
X48200000Y-78812500D03*
D26*
X55937500Y-51250000D03*
X55937500Y-49350000D03*
X54062500Y-50300000D03*
D27*
X50962500Y-40550000D03*
X50962500Y-42450000D03*
X52837500Y-41500000D03*
X65362500Y-40550000D03*
X65362500Y-42450000D03*
X67237500Y-41500000D03*
D26*
X50337500Y-51250000D03*
X50337500Y-49350000D03*
X48462500Y-50300000D03*
D23*
X35500000Y-36375000D03*
D22*
X35500000Y-33835000D03*
D27*
X55762500Y-40550000D03*
X55762500Y-42450000D03*
X57637500Y-41500000D03*
D24*
X52600000Y-56112500D03*
X52600000Y-54287500D03*
D27*
X60462500Y-40550000D03*
X60462500Y-42450000D03*
X62337500Y-41500000D03*
D25*
X46000000Y-76975000D03*
X46000000Y-78800000D03*
D24*
X55900000Y-56112500D03*
X55900000Y-54287500D03*
D28*
X37562500Y-56100000D03*
X39637500Y-56100000D03*
D29*
X41637500Y-61300000D03*
X39562500Y-61300000D03*
D30*
X53470000Y-77985000D03*
X56010000Y-77985000D03*
X58550000Y-77985000D03*
X61090000Y-77985000D03*
X66170000Y-77985000D03*
X63630000Y-77985000D03*
X71250000Y-62015000D03*
X71250000Y-77985000D03*
X68710000Y-62015000D03*
X66170000Y-62015000D03*
X63630000Y-62015000D03*
X61090000Y-62015000D03*
X58550000Y-62015000D03*
X56010000Y-62015000D03*
X53470000Y-62015000D03*
X68710000Y-77985000D03*
%LPD*%
M02*
