G04 #@! TF.GenerationSoftware,KiCad,Pcbnew,9.0.0*
G04 #@! TF.CreationDate,2025-03-14T10:33:54+00:00*
G04 #@! TF.ProjectId,paxtogeddon-pcb,70617874-6f67-4656-9464-6f6e2d706362,rev?*
G04 #@! TF.SameCoordinates,Original*
G04 #@! TF.FileFunction,Paste,Top*
G04 #@! TF.FilePolarity,Positive*
%FSLAX46Y46*%
G04 Gerber Fmt 4.6, Leading zero omitted, Abs format (unit mm)*
G04 Created by KiCad (PCBNEW 9.0.0) date 2025-03-14 10:33:54*
%MOMM*%
%LPD*%
G01*
G04 APERTURE LIST*
G04 Aperture macros list*
%AMRoundRect*
0 Rectangle with rounded corners*
0 $1 Rounding radius*
0 $2 $3 $4 $5 $6 $7 $8 $9 X,Y pos of 4 corners*
0 Add a 4 corners polygon primitive as box body*
4,1,4,$2,$3,$4,$5,$6,$7,$8,$9,$2,$3,0*
0 Add four circle primitives for the rounded corners*
1,1,$1+$1,$2,$3*
1,1,$1+$1,$4,$5*
1,1,$1+$1,$6,$7*
1,1,$1+$1,$8,$9*
0 Add four rect primitives between the rounded corners*
20,1,$1+$1,$2,$3,$4,$5,0*
20,1,$1+$1,$4,$5,$6,$7,0*
20,1,$1+$1,$6,$7,$8,$9,0*
20,1,$1+$1,$8,$9,$2,$3,0*%
G04 Aperture macros list end*
%ADD10RoundRect,0.250000X0.350000X-0.850000X0.350000X0.850000X-0.350000X0.850000X-0.350000X-0.850000X0*%
%ADD11RoundRect,0.250000X1.125000X-1.275000X1.125000X1.275000X-1.125000X1.275000X-1.125000X-1.275000X0*%
%ADD12RoundRect,0.250000X-0.650000X1.500000X-0.650000X-1.500000X0.650000X-1.500000X0.650000X1.500000X0*%
%ADD13RoundRect,0.250000X0.450000X-0.262500X0.450000X0.262500X-0.450000X0.262500X-0.450000X-0.262500X0*%
%ADD14RoundRect,0.250000X-0.450000X0.262500X-0.450000X-0.262500X0.450000X-0.262500X0.450000X0.262500X0*%
%ADD15RoundRect,0.150000X0.587500X0.150000X-0.587500X0.150000X-0.587500X-0.150000X0.587500X-0.150000X0*%
%ADD16RoundRect,0.150000X-0.587500X-0.150000X0.587500X-0.150000X0.587500X0.150000X-0.587500X0.150000X0*%
%ADD17RoundRect,0.250000X-0.337500X-0.475000X0.337500X-0.475000X0.337500X0.475000X-0.337500X0.475000X0*%
%ADD18RoundRect,0.250000X0.337500X0.475000X-0.337500X0.475000X-0.337500X-0.475000X0.337500X-0.475000X0*%
%ADD19R,1.524000X3.025000*%
G04 APERTURE END LIST*
D10*
X37392500Y-52100000D03*
D11*
X38147500Y-47475000D03*
X41197500Y-47475000D03*
X38147500Y-44125000D03*
X41197500Y-44125000D03*
D10*
X41952500Y-52100000D03*
D12*
X35400000Y-67100000D03*
X35400000Y-62100000D03*
D13*
X69000000Y-45487500D03*
X69000000Y-47312500D03*
X65400000Y-45487500D03*
X65400000Y-47312500D03*
X62100000Y-45487500D03*
X62100000Y-47312500D03*
X59800000Y-54287500D03*
X59800000Y-56112500D03*
D14*
X48200000Y-76987500D03*
X48200000Y-78812500D03*
D15*
X55937500Y-51250000D03*
X55937500Y-49350000D03*
X54062500Y-50300000D03*
D16*
X50962500Y-40550000D03*
X50962500Y-42450000D03*
X52837500Y-41500000D03*
X65362500Y-40550000D03*
X65362500Y-42450000D03*
X67237500Y-41500000D03*
D15*
X50337500Y-51250000D03*
X50337500Y-49350000D03*
X48462500Y-50300000D03*
D16*
X55762500Y-40550000D03*
X55762500Y-42450000D03*
X57637500Y-41500000D03*
D13*
X52600000Y-56112500D03*
X52600000Y-54287500D03*
D16*
X60462500Y-40550000D03*
X60462500Y-42450000D03*
X62337500Y-41500000D03*
D14*
X46000000Y-76975000D03*
X46000000Y-78800000D03*
D13*
X55900000Y-56112500D03*
X55900000Y-54287500D03*
D17*
X37562500Y-56100000D03*
X39637500Y-56100000D03*
D18*
X41637500Y-61300000D03*
X39562500Y-61300000D03*
D19*
X53470000Y-77985000D03*
X56010000Y-77985000D03*
X58550000Y-77985000D03*
X61090000Y-77985000D03*
X66170000Y-77985000D03*
X63630000Y-77985000D03*
X71250000Y-62015000D03*
X71250000Y-77985000D03*
X68710000Y-62015000D03*
X66170000Y-62015000D03*
X63630000Y-62015000D03*
X61090000Y-62015000D03*
X58550000Y-62015000D03*
X56010000Y-62015000D03*
X53470000Y-62015000D03*
X68710000Y-77985000D03*
M02*
